# Blender v2.78 (sub 0) OBJ File: 'blue_arch.blend'
# www.blender.org
mtllib blue_arch_corner.mtl
o Plane.003_Plane.004
v 7.077251 23.508808 -0.000001
v 3.708308 20.589848 -0.000001
v -7.077252 23.508806 -0.000000
v -3.708309 20.589848 -0.000000
v 1.267764 17.218557 -0.000000
v -1.267764 17.218557 -0.000000
v 1.267764 13.194759 0.000000
v -1.267764 13.194759 0.000000
v -0.000000 23.508806 7.077251
v 0.000000 20.589848 3.708309
v -0.000000 23.508806 -7.077251
v 0.000000 20.589848 -3.708309
v 0.000000 17.218555 1.267764
v 0.000000 17.218555 -1.267764
v 0.000000 13.194757 1.267764
v 0.000000 13.194757 -1.267764
v 1.620702 11.443746 -1.620704
v 1.620704 11.443746 1.620702
v -0.010527 11.443746 -1.620703
v -0.010526 11.443746 1.620703
v -0.010527 12.867422 -1.620703
v 1.620702 12.867422 -1.620704
v 1.620704 12.867422 1.620702
v -0.010526 12.867422 1.620703
v -0.010527 14.830987 -1.620703
v 1.620702 14.830987 -1.620704
v 1.620704 14.830987 1.620702
v -0.010526 14.830987 1.620703
v 0.120894 16.776800 -1.620703
v 1.715846 16.434692 -1.620704
v 1.715848 16.434692 1.620702
v 0.120896 16.776800 1.620703
v 0.819134 18.746098 -1.620703
v 2.318258 18.103027 -1.620704
v 2.318259 18.103027 1.620702
v 0.819136 18.746098 1.620703
v 2.262049 21.113953 -1.620704
v 3.373435 19.919912 -1.620705
v 3.373436 19.919912 1.620701
v 2.262051 21.113953 1.620702
v 4.386456 22.639505 -1.620705
v 5.046932 21.147968 -1.620706
v 5.046934 21.147968 1.620701
v 4.386458 22.639505 1.620701
v 7.418023 23.542669 -1.620707
v 7.482602 21.912718 -1.620707
v 7.482604 21.912718 1.620700
v 7.418025 23.542669 1.620700
v -1.620703 11.443746 -1.620703
v 1.620703 11.443746 -1.620703
v -1.620703 11.443746 0.010526
v 1.620703 11.443746 0.010526
v -1.620703 12.867422 0.010526
v -1.620703 12.867422 -1.620703
v 1.620703 12.867422 -1.620703
v 1.620703 12.867422 0.010526
v -1.620703 14.830987 0.010526
v -1.620703 14.830987 -1.620703
v 1.620703 14.830987 -1.620703
v 1.620703 14.830987 0.010526
v -1.620703 16.776800 -0.120895
v -1.620703 16.434692 -1.715847
v 1.620703 16.434692 -1.715847
v 1.620703 16.776800 -0.120895
v -1.620703 18.746096 -0.819135
v -1.620703 18.103025 -2.318259
v 1.620703 18.103027 -2.318259
v 1.620703 18.746098 -0.819135
v -1.620703 21.113953 -2.262050
v -1.620703 19.919912 -3.373435
v 1.620703 19.919912 -3.373435
v 1.620703 21.113953 -2.262050
v -1.620703 22.639505 -4.386457
v -1.620703 21.147968 -5.046933
v 1.620703 21.147968 -5.046933
v 1.620703 22.639505 -4.386457
v -1.620703 23.542671 -7.418024
v -1.620703 21.912720 -7.482603
v 1.620703 21.912720 -7.482603
v 1.620703 23.542671 -7.418024
v -1.000000 9.443746 1.000000
v -1.620703 11.443746 1.620703
v -1.000000 9.443746 -1.000000
v -1.620703 11.443746 -1.620703
v 1.000000 9.443746 1.000000
v 1.620703 11.443746 1.620703
v 1.000000 9.443746 -1.000000
v 1.620703 11.443746 -1.620703
v -1.620703 11.443746 0.010526
v 1.620703 11.443746 0.010526
v 1.000000 9.443746 0.010526
v -1.000000 9.443746 0.010526
v 0.000000 -0.000001 -1.000000
v 0.000000 9.999999 -1.000000
v 0.195090 -0.000001 -0.980785
v 0.195090 9.999999 -0.980785
v 0.382683 -0.000001 -0.923880
v 0.382683 9.999999 -0.923880
v 0.555570 -0.000001 -0.831470
v 0.555570 9.999999 -0.831470
v 0.707107 -0.000001 -0.707107
v 0.707107 9.999999 -0.707107
v 0.831470 -0.000001 -0.555570
v 0.831470 9.999999 -0.555570
v 0.923880 -0.000001 -0.382683
v 0.923879 9.999999 -0.382683
v 0.980785 -0.000001 -0.195090
v 0.980785 9.999999 -0.195090
v 1.000000 -0.000001 -0.000000
v 1.000000 9.999999 -0.000000
v 0.980785 -0.000001 0.195090
v 0.980785 9.999999 0.195090
v 0.923880 -0.000001 0.382683
v 0.923880 9.999999 0.382683
v 0.831470 -0.000001 0.555570
v 0.831470 9.999999 0.555570
v 0.707107 -0.000001 0.707107
v 0.707107 9.999999 0.707107
v 0.555570 -0.000001 0.831470
v 0.555570 9.999999 0.831470
v 0.382683 -0.000001 0.923880
v 0.382683 9.999999 0.923880
v 0.195090 -0.000001 0.980785
v 0.195090 9.999999 0.980785
v -0.000000 -0.000001 1.000000
v -0.000000 9.999999 1.000000
v -0.195091 -0.000001 0.980785
v -0.195091 9.999999 0.980785
v -0.382684 -0.000001 0.923879
v -0.382684 9.999999 0.923879
v -0.555571 -0.000001 0.831469
v -0.555571 9.999999 0.831469
v -0.707107 -0.000001 0.707106
v -0.707107 9.999999 0.707106
v -0.831470 -0.000001 0.555570
v -0.831470 9.999999 0.555570
v -0.923880 -0.000001 0.382683
v -0.923880 9.999999 0.382683
v -0.980785 -0.000001 0.195089
v -0.980785 9.999999 0.195089
v -1.000000 -0.000001 -0.000001
v -1.000000 9.999999 -0.000001
v -0.980785 -0.000001 -0.195091
v -0.980785 9.999999 -0.195091
v -0.923879 -0.000001 -0.382684
v -0.923879 9.999999 -0.382684
v -0.831469 -0.000001 -0.555571
v -0.831469 9.999999 -0.555571
v -0.707106 -0.000001 -0.707108
v -0.707106 9.999999 -0.707108
v -0.555569 -0.000001 -0.831470
v -0.555569 9.999999 -0.831470
v -0.382682 -0.000001 -0.923880
v -0.382682 9.999999 -0.923880
v -0.195089 -0.000001 -0.980786
v -0.195089 9.999999 -0.980786
vt 0.3327 0.4676
vt 0.2386 0.1113
vt 0.3327 0.0000
vt 0.2386 0.3563
vt 0.1298 0.1919
vt 0.1298 0.2757
vt 0.0000 0.1919
vt 0.5711 0.3563
vt 0.6652 0.0000
vt 0.6652 0.4676
vt 0.4624 0.1919
vt 0.5711 0.1113
vt 0.4624 0.2757
vt 0.3327 0.1919
vt 0.6652 0.7517
vt 0.7699 0.7048
vt 0.7699 0.7517
vt 0.5181 0.7413
vt 0.6228 0.6765
vt 0.6228 0.7413
vt 0.5181 0.7884
vt 0.6228 0.7884
vt 0.2296 0.9359
vt 0.2531 0.8686
vt 0.2756 0.9095
vt 0.1378 0.4940
vt 0.0694 0.5087
vt 0.0918 0.4676
vt 0.0384 0.5652
vt 0.0617 0.6393
vt 0.0114 0.6234
vt 0.6652 0.7048
vt 0.7699 0.6400
vt 0.1153 0.5350
vt 0.2072 0.8949
vt 0.2222 0.8120
vt 0.1995 0.7644
vt 0.1378 0.7123
vt 0.1902 0.7066
vt 0.1762 0.8384
vt 0.5181 0.6765
vt 0.6228 0.6121
vt 0.6652 0.6400
vt 0.7699 0.5870
vt 0.6228 0.5467
vt 0.5181 0.4676
vt 0.6228 0.4676
vt 0.5181 0.6121
vt 0.6652 0.5870
vt 0.7699 0.5307
vt 0.0000 0.6914
vt 0.0033 0.7829
vt 0.0812 0.8289
vt 0.0391 0.8612
vt 0.6652 0.5307
vt 0.7699 0.4686
vt 0.0535 0.7665
vt 0.1913 0.6373
vt 0.9074 0.0737
vt 0.8043 0.1788
vt 0.8031 0.0767
vt 0.1411 0.6209
vt 0.2190 0.5749
vt 0.9086 0.0000
vt 0.8043 0.0030
vt 0.6226 0.7900
vt 0.5194 0.8461
vt 0.5181 0.7884
vt 0.7711 0.8588
vt 0.8235 0.9659
vt 0.7711 0.9659
vt 0.6239 0.9295
vt 0.5194 0.9279
vt 0.1378 0.8902
vt 0.1103 0.9361
vt 0.1769 0.5426
vt 0.2756 0.5135
vt 0.8746 0.4686
vt 0.7699 0.5156
vt 0.7699 0.4686
vt 0.4134 0.7425
vt 0.5181 0.6777
vt 0.5181 0.7425
vt 0.4134 0.7895
vt 0.5181 0.7895
vt 0.7571 0.4686
vt 0.7806 0.4013
vt 0.8031 0.4423
vt 0.4134 0.4940
vt 0.3450 0.5086
vt 0.3674 0.4676
vt 0.3140 0.5651
vt 0.3373 0.6391
vt 0.2870 0.6231
vt 0.8746 0.5156
vt 0.7699 0.5804
vt 0.3909 0.5350
vt 0.7346 0.4276
vt 0.7496 0.3447
vt 0.7270 0.2969
vt 0.6652 0.2448
vt 0.7176 0.2391
vt 0.7036 0.3710
vt 0.4134 0.6133
vt 0.5181 0.6133
vt 0.8746 0.5804
vt 0.7699 0.6335
vt 0.4134 0.5475
vt 0.5181 0.4676
vt 0.5181 0.5475
vt 0.8746 0.6896
vt 0.7699 0.6896
vt 0.2756 0.6911
vt 0.2789 0.7825
vt 0.3568 0.8285
vt 0.3147 0.8607
vt 0.8746 0.7513
vt 0.7699 0.7513
vt 0.3290 0.7661
vt 0.7187 0.1697
vt 0.8031 0.2808
vt 0.9086 0.1818
vt 0.9074 0.2838
vt 0.6685 0.1532
vt 0.7465 0.1073
vt 0.8043 0.3546
vt 0.9086 0.3576
vt 0.7697 0.8913
vt 0.6666 0.8352
vt 0.7711 0.8336
vt 0.9271 0.9063
vt 0.8746 0.7992
vt 0.9271 0.7992
vt 0.7711 0.7517
vt 0.4134 0.8899
vt 0.3858 0.9357
vt 0.7043 0.0750
vt 0.8031 0.0459
vt 0.4134 0.8100
vt 0.4776 0.8427
vt 0.4134 0.8427
vt 0.8686 0.3576
vt 0.8031 0.4441
vt 0.8031 0.3781
vt 0.7711 0.7722
vt 0.8368 0.8056
vt 0.7711 0.8056
vt 0.9325 0.3576
vt 0.8686 0.4441
vt 0.8686 0.3781
vt 0.4778 0.9628
vt 0.4134 0.9292
vt 0.4778 0.9295
vt 0.4134 0.8761
vt 0.4778 0.8968
vt 0.7711 0.8383
vt 0.6652 0.8929
vt 0.7171 1.0000
vt 0.6652 0.9997
vt 0.9432 0.4686
vt 0.9495 0.7986
vt 0.9432 0.7986
vt 0.9495 0.4687
vt 0.9555 0.7987
vt 0.9555 0.4688
vt 0.9611 0.7989
vt 0.9611 0.4689
vt 0.9660 0.7991
vt 0.9543 0.0006
vt 0.9592 0.3301
vt 0.9543 0.3304
vt 0.9592 0.0003
vt 0.9648 0.3299
vt 0.9648 0.0002
vt 0.9709 0.3298
vt 0.9709 0.0000
vt 0.9772 0.3298
vt 0.9772 0.0000
vt 0.9835 0.3298
vt 0.9835 0.0000
vt 0.9895 0.3299
vt 0.9895 0.0002
vt 0.9951 0.3301
vt 0.9951 0.0003
vt 1.0000 0.3304
vt 0.9203 0.7992
vt 0.9154 0.4688
vt 0.9203 0.4690
vt 0.9154 0.7990
vt 0.9098 0.4687
vt 0.9098 0.7989
vt 0.9038 0.4687
vt 0.9038 0.7989
vt 0.8975 0.4686
vt 0.8975 0.7988
vt 0.8912 0.4687
vt 0.8912 0.7989
vt 0.8851 0.4687
vt 0.8851 0.7989
vt 0.8795 0.4688
vt 0.8795 0.7990
vt 0.8746 0.4690
vt 0.9543 0.3305
vt 0.9494 0.0001
vt 0.9543 0.0002
vt 0.9494 0.3304
vt 0.9438 0.0000
vt 0.9438 0.3304
vt 0.9378 0.0000
vt 0.9378 0.3304
vt 0.9315 0.0000
vt 0.9315 0.3303
vt 0.9252 0.0000
vt 0.9252 0.3304
vt 0.9191 0.0000
vt 0.9191 0.3304
vt 0.9135 0.0001
vt 0.9135 0.3304
vt 0.9086 0.0002
vt 0.9203 0.4691
vt 0.9252 0.7989
vt 0.9203 0.7991
vt 0.9252 0.4689
vt 0.9308 0.7987
vt 0.5652 0.9916
vt 0.5407 0.9940
vt 0.5193 0.9528
vt 0.9308 0.4688
vt 0.9369 0.7986
vt 0.9369 0.4687
vt 0.9218 0.9100
vt 0.9350 0.9547
vt 0.8783 0.9235
vt 0.0000 0.2757
vt 0.3327 0.2757
vt 0.0844 0.5916
vt 0.1492 0.7803
vt 0.5181 0.5467
vt 0.0524 0.6971
vt 0.6652 0.4686
vt 0.9086 0.1758
vt 0.6239 0.8477
vt 0.8235 0.8588
vt 0.2481 0.4676
vt 0.4134 0.6777
vt 0.3599 0.5914
vt 0.6766 0.3128
vt 0.8746 0.6335
vt 0.4134 0.4676
vt 0.3280 0.6968
vt 0.8043 0.1788
vt 0.6652 0.8929
vt 0.8746 0.9063
vt 0.6666 0.7534
vt 0.7755 0.0000
vt 0.4776 0.7895
vt 0.8686 0.4647
vt 0.8368 0.7517
vt 0.9325 0.4647
vt 0.4134 0.9626
vt 0.4776 0.8966
vt 0.4134 0.8966
vt 0.8368 0.8588
vt 0.7171 0.8932
vt 0.9660 0.4691
vt 1.0000 0.0006
vt 0.8746 0.7992
vt 0.9086 0.3305
vt 0.5217 0.9468
vt 0.5252 0.9414
vt 0.5297 0.9369
vt 0.5349 0.9333
vt 0.5407 0.9308
vt 0.5469 0.9295
vt 0.5532 0.9295
vt 0.5594 0.9308
vt 0.5652 0.9333
vt 0.5704 0.9369
vt 0.5749 0.9415
vt 0.5784 0.9469
vt 0.5808 0.9529
vt 0.5808 0.9720
vt 0.5820 0.9592
vt 0.5820 0.9657
vt 0.5784 0.9780
vt 0.5749 0.9834
vt 0.5704 0.9880
vt 0.5594 0.9940
vt 0.5532 0.9953
vt 0.5469 0.9953
vt 0.5349 0.9915
vt 0.5297 0.9879
vt 0.5252 0.9834
vt 0.5217 0.9780
vt 0.5193 0.9720
vt 0.5181 0.9656
vt 0.5181 0.9592
vt 0.8915 0.9683
vt 0.8862 0.9647
vt 0.8818 0.9601
vt 0.8783 0.9547
vt 0.8759 0.9487
vt 0.8746 0.9424
vt 0.8746 0.9359
vt 0.8759 0.9295
vt 0.8818 0.9182
vt 0.8862 0.9136
vt 0.8915 0.9100
vt 0.8973 0.9075
vt 0.9035 0.9063
vt 0.9098 0.9063
vt 0.9160 0.9075
vt 0.9271 0.9136
vt 0.9315 0.9182
vt 0.9350 0.9236
vt 0.9375 0.9296
vt 0.9387 0.9359
vt 0.9387 0.9424
vt 0.9375 0.9488
vt 0.9315 0.9601
vt 0.9271 0.9647
vt 0.9218 0.9683
vt 0.9160 0.9708
vt 0.9098 0.9720
vt 0.9035 0.9720
vt 0.8973 0.9707
vn -0.0000 -0.0000 -1.0000
vn 1.0000 0.0000 0.0000
vn -1.0000 0.0000 0.0000
vn 0.0000 0.0000 1.0000
vn -0.9977 0.0674 0.0000
vn 0.9982 -0.0592 -0.0000
vn -0.8539 0.5204 0.0000
vn -0.9425 0.3342 0.0000
vn 0.9406 -0.3396 -0.0000
vn 0.8647 -0.5022 -0.0000
vn -0.2855 0.9584 -0.0000
vn -0.5833 0.8123 0.0000
vn 0.5916 -0.8062 -0.0000
vn 0.9992 0.0396 -0.0000
vn 0.2996 -0.9541 0.0000
vn 0.0000 0.0674 0.9977
vn 0.0000 -0.0592 -0.9982
vn -0.0000 0.5204 0.8539
vn 0.0000 0.3342 0.9425
vn 0.0000 -0.3396 -0.9406
vn 0.0000 -0.5022 -0.8647
vn 0.0000 0.9584 0.2855
vn 0.0000 0.8123 0.5833
vn 0.0000 -0.8062 -0.5916
vn 0.0000 0.0396 -0.9992
vn 0.0000 -0.9541 -0.2996
vn -0.9551 -0.2964 0.0000
vn -0.0000 -0.2964 -0.9551
vn 0.9551 -0.2964 0.0000
vn 0.0000 -0.2964 0.9551
vn 0.0000 -1.0000 0.0000
vn 0.0000 1.0000 0.0000
vn 0.0980 0.0000 -0.9952
vn 0.2903 0.0000 -0.9569
vn 0.4714 -0.0000 -0.8819
vn 0.6344 0.0000 -0.7730
vn 0.7730 0.0000 -0.6344
vn 0.8819 0.0000 -0.4714
vn 0.9569 0.0000 -0.2903
vn 0.9952 0.0000 -0.0980
vn 0.9952 0.0000 0.0980
vn 0.9569 0.0000 0.2903
vn 0.8819 0.0000 0.4714
vn 0.7730 0.0000 0.6344
vn 0.6344 0.0000 0.7730
vn 0.4714 0.0000 0.8819
vn 0.2903 0.0000 0.9569
vn 0.0980 -0.0000 0.9952
vn -0.0980 0.0000 0.9952
vn -0.2903 0.0000 0.9569
vn -0.4714 0.0000 0.8819
vn -0.6344 -0.0000 0.7730
vn -0.7730 0.0000 0.6344
vn -0.8819 0.0000 0.4714
vn -0.9569 -0.0000 0.2903
vn -0.9952 -0.0000 0.0980
vn -0.9952 0.0000 -0.0980
vn -0.9569 -0.0000 -0.2903
vn -0.8819 0.0000 -0.4714
vn -0.7730 -0.0000 -0.6344
vn -0.6344 0.0000 -0.7730
vn -0.4714 0.0000 -0.8819
vn -0.2903 0.0000 -0.9569
vn -0.0980 0.0000 -0.9952
usemtl Material
s off
f 1/1/1 4/2/1 3/3/1
f 2/4/1 6/5/1 4/2/1
f 5/6/1 8/7/1 6/5/1
f 10/8/2 11/9/2 9/10/2
f 10/8/2 14/11/2 12/12/2
f 13/13/2 16/14/2 14/11/2
f 17/15/2 23/16/2 18/17/2
f 24/18/3 25/19/3 21/20/3
f 20/21/3 21/20/3 19/22/3
f 19/23/1 22/24/1 17/25/1
f 18/26/4 24/27/4 20/28/4
f 28/29/4 31/30/4 32/31/4
f 22/32/2 27/33/2 23/16/2
f 23/34/4 28/29/4 24/27/4
f 21/35/1 26/36/1 22/24/1
f 30/37/1 33/38/1 34/39/1
f 25/40/1 30/37/1 26/36/1
f 28/41/5 29/42/5 25/19/5
f 26/43/6 31/44/6 27/33/6
f 33/45/7 40/46/7 37/47/7
f 32/48/8 33/45/8 29/42/8
f 30/49/9 35/50/9 31/44/9
f 31/30/4 36/51/4 32/31/4
f 40/52/4 43/53/4 44/54/4
f 34/55/10 39/56/10 35/50/10
f 36/51/4 39/57/4 40/52/4
f 33/38/1 38/58/1 34/39/1
f 44/59/11 45/60/11 41/61/11
f 37/62/1 42/63/1 38/58/1
f 40/64/12 41/61/12 37/65/12
f 38/66/13 43/67/13 39/68/13
f 48/69/14 46/70/14 45/71/14
f 43/67/15 46/72/15 47/73/15
f 44/54/4 47/74/4 48/75/4
f 41/76/1 46/77/1 42/63/1
f 49/78/1 55/79/1 50/80/1
f 56/81/4 57/82/4 53/83/4
f 52/84/4 53/83/4 51/85/4
f 51/86/3 54/87/3 49/88/3
f 50/89/2 56/90/2 52/91/2
f 60/92/2 63/93/2 64/94/2
f 54/95/1 59/96/1 55/79/1
f 55/97/2 60/92/2 56/90/2
f 53/98/3 58/99/3 54/87/3
f 62/100/3 65/101/3 66/102/3
f 57/103/3 62/100/3 58/99/3
f 57/82/16 64/104/16 61/105/16
f 58/106/17 63/107/17 59/96/17
f 68/108/18 69/109/18 65/110/18
f 64/104/19 65/110/19 61/105/19
f 63/107/20 66/111/20 67/112/20
f 63/93/2 68/113/2 64/94/2
f 72/114/2 75/115/2 76/116/2
f 67/112/21 70/117/21 71/118/21
f 68/113/2 71/119/2 72/114/2
f 65/101/3 70/120/3 66/102/3
f 76/121/22 77/122/22 73/123/22
f 69/124/3 74/125/3 70/120/3
f 72/126/23 73/123/23 69/127/23
f 71/128/24 74/129/24 75/130/24
f 80/131/25 78/132/25 77/133/25
f 74/129/26 79/134/26 75/130/26
f 76/116/2 79/135/2 80/136/2
f 73/137/3 78/138/3 74/125/3
f 81/139/27 89/140/27 92/141/27
f 84/142/28 87/143/28 83/144/28
f 87/145/29 90/146/29 91/147/29
f 86/148/30 81/149/30 85/150/30
f 83/151/31 91/152/31 92/153/31
f 89/140/27 83/154/27 92/141/27
f 91/152/31 81/155/31 92/153/31
f 90/146/29 85/156/29 91/147/29
f 89/157/32 86/158/32 90/159/32
f 94/160/33 95/161/33 93/162/33
f 96/163/34 97/164/34 95/161/34
f 98/165/35 99/166/35 97/164/35
f 100/167/36 101/168/36 99/166/36
f 102/169/37 103/170/37 101/171/37
f 104/172/38 105/173/38 103/170/38
f 106/174/39 107/175/39 105/173/39
f 108/176/40 109/177/40 107/175/40
f 110/178/41 111/179/41 109/177/41
f 112/180/42 113/181/42 111/179/42
f 114/182/43 115/183/43 113/181/43
f 116/184/44 117/185/44 115/183/44
f 118/186/45 119/187/45 117/188/45
f 120/189/46 121/190/46 119/187/46
f 122/191/47 123/192/47 121/190/47
f 124/193/48 125/194/48 123/192/48
f 126/195/49 127/196/49 125/194/49
f 128/197/50 129/198/50 127/196/50
f 130/199/51 131/200/51 129/198/51
f 132/201/52 133/202/52 131/200/52
f 134/203/53 135/204/53 133/205/53
f 136/206/54 137/207/54 135/204/54
f 138/208/55 139/209/55 137/207/55
f 140/210/56 141/211/56 139/209/56
f 142/212/57 143/213/57 141/211/57
f 144/214/58 145/215/58 143/213/58
f 146/216/59 147/217/59 145/215/59
f 148/218/60 149/219/60 147/217/60
f 150/220/61 151/221/61 149/222/61
f 152/223/62 153/224/62 151/221/62
f 122/225/32 114/226/32 98/227/32
f 154/228/63 155/229/63 153/224/63
f 156/230/64 93/162/64 155/229/64
f 123/231/31 139/232/31 107/233/31
f 1/1/1 2/4/1 4/2/1
f 2/4/1 5/6/1 6/5/1
f 5/6/1 7/234/1 8/7/1
f 10/8/2 12/12/2 11/9/2
f 10/8/2 13/13/2 14/11/2
f 13/13/2 15/235/2 16/14/2
f 17/15/2 22/32/2 23/16/2
f 24/18/3 28/41/3 25/19/3
f 20/21/3 24/18/3 21/20/3
f 19/23/1 21/35/1 22/24/1
f 18/26/4 23/34/4 24/27/4
f 28/29/4 27/236/4 31/30/4
f 22/32/2 26/43/2 27/33/2
f 23/34/4 27/236/4 28/29/4
f 21/35/1 25/40/1 26/36/1
f 30/37/1 29/237/1 33/38/1
f 25/40/1 29/237/1 30/37/1
f 28/41/5 32/48/5 29/42/5
f 26/43/6 30/49/6 31/44/6
f 33/45/7 36/238/7 40/46/7
f 32/48/8 36/238/8 33/45/8
f 30/49/9 34/55/9 35/50/9
f 31/30/4 35/239/4 36/51/4
f 40/52/4 39/57/4 43/53/4
f 34/55/10 38/240/10 39/56/10
f 36/51/4 35/239/4 39/57/4
f 33/38/1 37/62/1 38/58/1
f 44/59/11 48/241/11 45/60/11
f 37/62/1 41/76/1 42/63/1
f 40/64/12 44/59/12 41/61/12
f 38/66/13 42/242/13 43/67/13
f 48/69/14 47/243/14 46/70/14
f 43/67/15 42/242/15 46/72/15
f 44/54/4 43/53/4 47/74/4
f 41/76/1 45/244/1 46/77/1
f 49/78/1 54/95/1 55/79/1
f 56/81/4 60/245/4 57/82/4
f 52/84/4 56/81/4 53/83/4
f 51/86/3 53/98/3 54/87/3
f 50/89/2 55/97/2 56/90/2
f 60/92/2 59/246/2 63/93/2
f 54/95/1 58/106/1 59/96/1
f 55/97/2 59/246/2 60/92/2
f 53/98/3 57/103/3 58/99/3
f 62/100/3 61/247/3 65/101/3
f 57/103/3 61/247/3 62/100/3
f 57/82/16 60/245/16 64/104/16
f 58/106/17 62/248/17 63/107/17
f 68/108/18 72/249/18 69/109/18
f 64/104/19 68/108/19 65/110/19
f 63/107/20 62/248/20 66/111/20
f 63/93/2 67/250/2 68/113/2
f 72/114/2 71/119/2 75/115/2
f 67/112/21 66/111/21 70/117/21
f 68/113/2 67/250/2 71/119/2
f 65/101/3 69/124/3 70/120/3
f 76/121/22 80/251/22 77/122/22
f 69/124/3 73/137/3 74/125/3
f 72/126/23 76/121/23 73/123/23
f 71/128/24 70/252/24 74/129/24
f 80/131/25 79/253/25 78/132/25
f 74/129/26 78/254/26 79/134/26
f 76/116/2 75/115/2 79/135/2
f 73/137/3 77/255/3 78/138/3
f 81/139/27 82/256/27 89/140/27
f 84/142/28 88/257/28 87/143/28
f 87/145/29 88/258/29 90/146/29
f 86/148/30 82/259/30 81/149/30
f 83/151/31 87/260/31 91/152/31
f 89/140/27 84/261/27 83/154/27
f 91/152/31 85/262/31 81/155/31
f 90/146/29 86/263/29 85/156/29
f 89/157/32 82/264/32 86/158/32
f 94/160/33 96/163/33 95/161/33
f 96/163/34 98/165/34 97/164/34
f 98/165/35 100/167/35 99/166/35
f 100/167/36 102/265/36 101/168/36
f 102/169/37 104/172/37 103/170/37
f 104/172/38 106/174/38 105/173/38
f 106/174/39 108/176/39 107/175/39
f 108/176/40 110/178/40 109/177/40
f 110/178/41 112/180/41 111/179/41
f 112/180/42 114/182/42 113/181/42
f 114/182/43 116/184/43 115/183/43
f 116/184/44 118/266/44 117/185/44
f 118/186/45 120/189/45 119/187/45
f 120/189/46 122/191/46 121/190/46
f 122/191/47 124/193/47 123/192/47
f 124/193/48 126/195/48 125/194/48
f 126/195/49 128/197/49 127/196/49
f 128/197/50 130/199/50 129/198/50
f 130/199/51 132/201/51 131/200/51
f 132/201/52 134/267/52 133/202/52
f 134/203/53 136/206/53 135/204/53
f 136/206/54 138/208/54 137/207/54
f 138/208/55 140/210/55 139/209/55
f 140/210/56 142/212/56 141/211/56
f 142/212/57 144/214/57 143/213/57
f 144/214/58 146/216/58 145/215/58
f 146/216/59 148/218/59 147/217/59
f 148/218/60 150/268/60 149/219/60
f 150/220/61 152/223/61 151/221/61
f 152/223/62 154/228/62 153/224/62
f 98/227/32 96/269/32 94/270/32
f 94/270/32 156/271/32 154/272/32
f 154/272/32 152/273/32 150/274/32
f 150/274/32 148/275/32 146/276/32
f 146/276/32 144/277/32 142/278/32
f 142/278/32 140/279/32 138/280/32
f 138/280/32 136/281/32 130/282/32
f 134/283/32 132/284/32 130/282/32
f 130/282/32 128/285/32 126/286/32
f 126/286/32 124/287/32 130/282/32
f 122/225/32 120/288/32 118/289/32
f 118/289/32 116/290/32 114/226/32
f 114/226/32 112/291/32 110/292/32
f 110/292/32 108/293/32 114/226/32
f 106/294/32 104/295/32 102/296/32
f 102/296/32 100/297/32 98/227/32
f 98/227/32 94/270/32 146/276/32
f 154/272/32 150/274/32 146/276/32
f 146/276/32 142/278/32 130/282/32
f 136/281/32 134/283/32 130/282/32
f 130/282/32 124/287/32 122/225/32
f 122/225/32 118/289/32 114/226/32
f 114/226/32 108/293/32 106/294/32
f 106/294/32 102/296/32 114/226/32
f 94/270/32 154/272/32 146/276/32
f 142/278/32 138/280/32 130/282/32
f 130/282/32 122/225/32 98/227/32
f 114/226/32 102/296/32 98/227/32
f 98/227/32 146/276/32 130/282/32
f 154/228/63 156/230/63 155/229/63
f 156/230/64 94/160/64 93/162/64
f 155/298/31 93/299/31 95/300/31
f 95/300/31 97/301/31 99/302/31
f 99/302/31 101/303/31 103/304/31
f 103/304/31 105/305/31 99/302/31
f 107/233/31 109/306/31 111/307/31
f 111/307/31 113/308/31 107/233/31
f 115/309/31 117/310/31 123/231/31
f 119/311/31 121/312/31 123/231/31
f 123/231/31 125/313/31 127/314/31
f 127/314/31 129/315/31 131/316/31
f 131/316/31 133/317/31 135/318/31
f 135/318/31 137/319/31 139/232/31
f 139/232/31 141/320/31 143/321/31
f 143/321/31 145/322/31 147/323/31
f 147/323/31 149/324/31 155/298/31
f 151/325/31 153/326/31 155/298/31
f 155/298/31 95/300/31 107/233/31
f 99/302/31 105/305/31 107/233/31
f 107/233/31 113/308/31 115/309/31
f 117/310/31 119/311/31 123/231/31
f 123/231/31 127/314/31 139/232/31
f 131/316/31 135/318/31 139/232/31
f 139/232/31 143/321/31 155/298/31
f 149/324/31 151/325/31 155/298/31
f 95/300/31 99/302/31 107/233/31
f 107/233/31 115/309/31 123/231/31
f 127/314/31 131/316/31 139/232/31
f 143/321/31 147/323/31 155/298/31
f 155/298/31 107/233/31 139/232/31
