<?xml version="1.0" encoding="utf-8"?>
<!-- Generator: Adobe Illustrator 16.0.0, SVG Export Plug-In . SVG Version: 6.00 Build 0)  -->
<!DOCTYPE svg PUBLIC "-//W3C//DTD SVG 1.1//EN" "http://www.w3.org/Graphics/SVG/1.1/DTD/svg11.dtd">
<svg version="1.1" id="Layer_1" xmlns="http://www.w3.org/2000/svg" xmlns:xlink="http://www.w3.org/1999/xlink" x="0px" y="0px"
	 width="90.257px" height="360px" viewBox="0 0 90.257 360" enable-background="new 0 0 90.257 360" xml:space="preserve">
<g>
	<path fill="#9FD3A3" d="M61.515,60.331c31.289,19.799,5.127,89.425,2.833,117.965c-2.367,29.436,16.476,108.909-8.282,131.441
		c-14.12,12.849-31.479-1.043-40.009-13.678c-11.779-17.445-12.439-38.399-6.14-57.912c10.532-32.627,19.976-60.943,18.469-95.617
		c-0.805-18.514-10.043-37.87-5.921-56.479C26.052,69.862,42.718,48.437,61.515,60.331z"/>
	<g>
		<g>
			<path fill="#78A4D7" d="M72.607,52.66c-1.228-10.127,2.761-23.935-6.751-30.687c-9.513-6.75-22.708-2.762-30.688,4.91
				c-9.82,8.899-10.74,28.232-9.513,40.506l0.614,0.614c4.295,9.513,25.47,8.286,34.062,7.979
				c4.295-0.307,12.274-0.614,14.115-5.524C76.289,65.855,73.221,57.57,72.607,52.66z M45.199,43.968
				c-0.895,3.582-5.748,6.829-8.995,4.002c-2.892-2.518-1.006-7.076,0.228-9.954c0.94-2.191,5.01-5.635,7.828-3.756
				C45.826,35.2,45.513,42.089,45.199,43.968z M65.759,43.968c-0.895,3.582-5.747,6.829-8.994,4.002
				c-2.893-2.518-1.006-7.076,0.227-9.954c0.94-2.191,5.011-5.635,7.829-3.756C66.386,35.2,66.072,42.089,65.759,43.968z"/>
		</g>
		<g>
			<path fill="#FFD420" d="M73.939,52.66c-0.852-8.435,1.163-17.304-2.141-25.372c-3.12-7.621-12.348-11.003-20.062-9.895
				c-8.719,1.252-16.732,6.139-21.593,13.52c-5.007,7.604-6.042,17.692-6.238,26.554c-0.154,6.925-0.25,12.282,6.059,16.199
				c6.439,3.998,15.564,3.9,22.855,3.864c6.529-0.033,15.002,0.513,20.538-3.491c6.328-4.578,1.428-15.811,0.533-21.733
				c-0.256-1.694-2.822-0.972-2.568,0.708c1.014,6.717,6.109,17.492-2.818,20.494c-5.123,1.723-11.444,1.336-16.796,1.363
				c-6.042,0.03-12.214-0.347-17.956-2.357c-3.305-1.156-4.285-3.197-6.541-5.453c-1.302-1.302-0.636-6.465-0.651-8.269
				c-0.134-16.237,4.616-32.564,21.596-37.963c9.256-2.943,19.631,0.778,22.215,10.601c1.796,6.83,0.199,14.264,0.902,21.23
				C71.446,54.353,74.112,54.369,73.939,52.66z"/>
			<path fill="#FFD420" d="M43.915,43.614c-0.927,2.938-5.111,6.003-7.475,2.577c-1.464-2.121,0.465-6.54,1.675-8.429
				c0.762-1.189,2.125-2.093,3.427-2.564c2.021-0.731,2.322,0.858,2.484,2.345C44.241,39.517,44.205,41.647,43.915,43.614
				c-0.248,1.68,2.32,2.403,2.569,0.708c0.444-3.017,1.076-7.917-0.853-10.549c-2.805-3.827-8.4,0.433-10.122,3.119
				c-2.458,3.837-3.41,9.682,0.61,12.667c4,2.968,9.188-1.51,10.364-5.236C47.002,42.679,44.43,41.981,43.915,43.614z"/>
			<path fill="#FFD420" d="M64.475,43.614c-0.927,2.939-5.11,6.002-7.475,2.577c-1.464-2.121,0.464-6.541,1.674-8.429
				c0.763-1.189,2.125-2.093,3.427-2.564c2.021-0.731,2.322,0.858,2.484,2.345C64.801,39.517,64.764,41.646,64.475,43.614
				c-0.247,1.68,2.319,2.403,2.568,0.708c0.444-3.017,1.076-7.917-0.852-10.549c-2.804-3.828-8.401,0.434-10.122,3.119
				c-2.459,3.837-3.408,9.683,0.611,12.667c3.999,2.968,9.188-1.51,10.362-5.236C67.562,42.679,64.989,41.981,64.475,43.614z"/>
		</g>
	</g>
	<g>
		<defs>
			<path id="SVGID_1_" d="M72.607,52.66c-1.228-10.127,2.761-23.935-6.751-30.687c-9.513-6.75-22.708-2.762-30.688,4.91
				c-9.82,8.899-10.74,28.232-9.513,40.506l0.614,0.614c4.295,9.513,25.47,8.286,34.062,7.979
				c4.295-0.307,12.274-0.614,14.115-5.524C76.289,65.855,73.221,57.57,72.607,52.66z M45.199,43.968
				c-0.895,3.582-5.748,6.829-8.995,4.002c-2.892-2.518-1.006-7.076,0.228-9.954c0.94-2.191,5.01-5.635,7.828-3.756
				C45.826,35.2,45.513,42.089,45.199,43.968z M65.759,43.968c-0.895,3.582-5.747,6.829-8.994,4.002
				c-2.893-2.518-1.006-7.076,0.227-9.954c0.94-2.191,5.011-5.635,7.829-3.756C66.386,35.2,66.072,42.089,65.759,43.968z"/>
		</defs>
		<clipPath id="SVGID_2_">
			<use xlink:href="#SVGID_1_"  overflow="visible"/>
		</clipPath>
		<g clip-path="url(#SVGID_2_)">
			
				<path fill="none" stroke="#FFD420" stroke-width="2.6644" stroke-linecap="round" stroke-linejoin="round" stroke-miterlimit="10" d="
				M25.349,62.175c4.154,5.824,15.777,5.779,22.111,6.321c5.16,0.441,11.337,0.71,16.488,0.094c2.813-0.337,8.775-2.208,10.5-4.574"
				/>
			
				<path fill="none" stroke="#FFD420" stroke-width="2.6644" stroke-linecap="round" stroke-linejoin="round" stroke-miterlimit="10" d="
				M30.26,66.471c0.79,1.683-0.231,3.665,0,5.523"/>
			
				<path fill="none" stroke="#FFD420" stroke-width="2.6644" stroke-linecap="round" stroke-linejoin="round" stroke-miterlimit="10" d="
				M37.931,68.925c0.199,1.644-0.126,4.659-0.614,6.445"/>
			
				<path fill="none" stroke="#FFD420" stroke-width="2.6644" stroke-linecap="round" stroke-linejoin="round" stroke-miterlimit="10" d="
				M45.296,69.54c-0.615,2.529-0.615,5.046-0.614,7.671"/>
			
				<path fill="none" stroke="#FFD420" stroke-width="2.6644" stroke-linecap="round" stroke-linejoin="round" stroke-miterlimit="10" d="
				M52.968,69.847c0.378,2.269-1.031,5.566-0.921,8.286"/>
			
				<path fill="none" stroke="#FFD420" stroke-width="2.6644" stroke-linecap="round" stroke-linejoin="round" stroke-miterlimit="10" d="
				M59.104,70.154c-0.035,2.548,0.297,5.098,0.307,7.671"/>
			
				<path fill="none" stroke="#FFD420" stroke-width="2.6644" stroke-linecap="round" stroke-linejoin="round" stroke-miterlimit="10" d="
				M65.856,69.232c0.938,2.752-0.164,5.737,0,8.593"/>
			
				<path fill="none" stroke="#FFD420" stroke-width="2.6644" stroke-linecap="round" stroke-linejoin="round" stroke-miterlimit="10" d="
				M71.073,67.698c0.792,2.018,0.308,4.829,0.307,7.059"/>
			
				<path fill="none" stroke="#FFD420" stroke-width="2.6644" stroke-linecap="round" stroke-linejoin="round" stroke-miterlimit="10" d="
				M25.963,64.016c-0.769,1.629-1.144,4.015-0.921,5.831"/>
			
				<path fill="none" stroke="#FFD420" stroke-width="2.6644" stroke-linecap="round" stroke-linejoin="round" stroke-miterlimit="10" d="
				M73.527,64.938c1.715,1.763,0.684,4.57,2.147,6.442"/>
		</g>
	</g>
	<g>
		<g>
			<g>
				<g>
					<path fill="#010101" d="M21.183,84.94c-8.025,7.597-8.316,19.413-2.425,28.417c5.552,8.487,15.713,10.659,23.36,3.654
						C57.594,102.834,37.072,65.792,21.183,84.94c-2.452,2.955,1.77,7.226,4.244,4.244c5.234-6.308,10.526-2.706,13.881,3.384
						c3.51,6.371,3.777,14.763-1.435,20.199c-5.314,5.543-11.752,1.333-14.933-4.046c-3.798-6.424-2.929-14.411,2.487-19.537
						C28.243,86.519,23.992,82.282,21.183,84.94L21.183,84.94z"/>
				</g>
			</g>
			<g>
				<g>
					<path fill="#010101" d="M45.042,104.846c2.916-0.001,5.774-0.059,8.47-1.28c1.49-0.675,1.838-2.806,1.076-4.106
						c-0.89-1.519-2.615-1.751-4.105-1.077c-1.583,0.717-3.761,0.459-5.441,0.46C41.172,98.846,41.172,104.848,45.042,104.846
						L45.042,104.846z"/>
				</g>
			</g>
			<g>
				<g>
					<path fill="#010101" d="M76.726,117.008c7.781-7.484,6.649-18.934,1.49-27.586c-4.548-7.627-14.042-13.418-21.78-6.569
						c-7.568,6.699-5.921,20.343-2.232,28.536C58.771,121.534,68.03,124.428,76.726,117.008c2.948-2.516-1.317-6.741-4.244-4.244
						c-12.702,10.839-19.119-16.97-12.398-25.048c4.659-5.6,10.966,1.407,13.424,5.528c3.629,6.085,4.402,14.299-1.025,19.52
						C69.688,115.451,73.937,119.69,76.726,117.008z"/>
				</g>
			</g>
			<g>
				<g>
					<path fill="#010101" d="M27.652,104.846c3.871,0,3.871-6.002,0-6.002S23.782,104.846,27.652,104.846L27.652,104.846z"/>
				</g>
			</g>
			<g>
				<g>
					<path fill="#010101" d="M64.171,103.976c3.87,0,3.87-6.002,0-6.002S60.301,103.976,64.171,103.976L64.171,103.976z"/>
				</g>
			</g>
		</g>
		<g>
			<g>
				<path fill="#010101" d="M19.811,103.807c-2.423-5.551-7.257-9.69-10.434-14.781c-2.043-3.275-7.238-0.265-5.183,3.029
					c3.177,5.091,8.013,9.235,10.434,14.781C16.173,110.376,21.343,107.317,19.811,103.807L19.811,103.807z"/>
			</g>
		</g>
		<g>
			<g>
				<path fill="#010101" d="M83.584,101.772c0.947-3.55,2.531-6.884,3.479-10.434c1-3.745-4.79-5.332-5.787-1.596
					c-0.948,3.55-2.531,6.884-3.479,10.434C76.798,103.921,82.587,105.508,83.584,101.772L83.584,101.772z"/>
			</g>
		</g>
	</g>
	<g>
		<path fill="#9FD3A3" d="M19.134,293.669c2.752,7.337,9.172,39.439,15.593,43.108c15.592,9.172-2.752-35.771-1.834-42.191"/>
	</g>
	<g>
		<path fill="#9FD3A3" d="M55.823,297.337c0.916,11.925,6.42,31.186,14.675,39.44c11.925-12.841-10.089-50.446-11.007-67.873"/>
	</g>
	<g>
		<path fill="#231F20" d="M34.522,128.73c-12.004,7.202-18.006,15.605-15.605,30.01c2.4-2.401,4.801-3.602,6.002-6.002
			c0,3.601,3.601,8.402,3.601,12.004c1.2-1.201,6.002-1.201,8.403-4.802c0,7.202,2.4,13.204,3.601,19.206
			c2.401-2.4,4.801-6.002,6.002-8.402c2.401,13.204,13.205,10.804,15.605-1.201c0,2.401,2.4,6.002,3.602,8.403
			c0-3.601,2.4-8.403,3.601-13.204c1.2,3.601,3.602,6.002,4.802,9.603c12.004-32.411-6.002-49.216-37.212-46.815"/>
	</g>
	<g>
		<path fill="#D63527" d="M39.969,148.653c5.54,4.616,26.776,10.155,21.236-3.694c-2.771-7.385-23.082-5.539-23.082,2.771"/>
	</g>
</g>
</svg>
