<?xml version="1.0" encoding="utf-8"?>
<!-- Generator: Adobe Illustrator 18.1.0, SVG Export Plug-In . SVG Version: 6.00 Build 0)  -->
<!DOCTYPE svg PUBLIC "-//W3C//DTD SVG 1.1//EN" "http://www.w3.org/Graphics/SVG/1.1/DTD/svg11.dtd">
<svg version="1.1" id="Layer_1" xmlns="http://www.w3.org/2000/svg" xmlns:xlink="http://www.w3.org/1999/xlink" x="0px" y="0px"
	 viewBox="0 0 500 500" enable-background="new 0 0 500 500" xml:space="preserve">
<rect x="-2.2" fill="#CC4F4C" width="502.9" height="500"/>
<g>
	<path fill="#E4758C" d="M65.3,247.6c-2.6-0.5-4.1-0.5-4.1-0.5S62.7,247.5,65.3,247.6z"/>
	<path fill="#E4758C" d="M399.9,237.8c-14.4-4.3-60.4-98.5-96.4-98.5S248.9,181,248.9,181s-24.4-41.7-49.6-41.7
		s-46.7,29.5-75.5,72.6C101,246,75.1,248.2,65.3,247.6c9.7,1.7,35.2,9.3,57,43.4c25.9,40.3,70.5,69.7,126.6,69.7
		c44.6,0,82.7-12.2,111.5-53.9c28.8-41.7,76.9-59.7,76.9-59.7S414.3,242.1,399.9,237.8z M313.7,254.6c-3.6,1.8-8.8,4-15,6
		c-6.2,2-13.5,3.7-21.2,4.9c-7.8,1.2-16,1.8-24.3,1.8c-8.3,0-16.5-0.6-24.3-1.8c-7.7-1.2-15-2.9-21.1-4.9c-6.2-2-11.3-4.2-14.9-6
		c-3.6-1.8-5.7-3.2-5.7-3.2s2.1-1.4,5.7-3.2c3.6-1.8,8.8-4,15-6c6.2-2,13.5-3.7,21.2-4.9c7.8-1.2,16-1.8,24.3-1.8
		c8.3,0,16.5,0.6,24.3,1.8c7.7,1.2,15,2.9,21.1,4.9c6.2,2,11.3,4.2,14.9,6c3.6,1.8,5.7,3.2,5.7,3.2S317.3,252.9,313.7,254.6z"/>
</g>
</svg>
