<?xml version="1.0" encoding="utf-8"?>
<!-- Generator: Adobe Illustrator 18.1.0, SVG Export Plug-In . SVG Version: 6.00 Build 0)  -->
<!DOCTYPE svg PUBLIC "-//W3C//DTD SVG 1.1//EN" "http://www.w3.org/Graphics/SVG/1.1/DTD/svg11.dtd">
<svg version="1.1" id="Layer_1" xmlns="http://www.w3.org/2000/svg" xmlns:xlink="http://www.w3.org/1999/xlink" x="0px" y="0px"
	 viewBox="0 0 500 500" enable-background="new 0 0 500 500" xml:space="preserve">
<rect fill="#A42831" width="500" height="500"/>
<path fill="#CC4F4C" d="M83.3,194.7c6.6-15.1,104.2-53.2,104.2-53.2l-29.6,37.8l81.1-0.3c0,0-51.6,17.7-66.2,24.5
	c-23.3,10.8-59,31.5-59,31.5L91,231.4C91,231.4,77.4,208.3,83.3,194.7z"/>
<path fill="#CC4F4C" d="M433.5,331.3c-6.6,15.1-104.2,53.2-104.2,53.2l29.6-37.8l-81.1,0.3c0,0,51.6-17.7,66.2-24.5
	c23.3-10.8,59-31.5,59-31.5l22.7,3.6C425.8,294.6,439.4,317.7,433.5,331.3z"/>
<path fill="#E4758C" d="M83.3,194.7c0,44.8,72.9,36.7,228,18.7c191.9-22.3,121.6,118.7,121.6,118.7s4.8-77.4-205.8-41.9
	C0.2,328.6,83.3,194.7,83.3,194.7z"/>
<path fill="#FFFFFF" d="M226.8,231.9c-0.4-0.1-0.9-0.2-1.8-0.2c-0.3,0-0.6,0-0.9,0.1c-11,0.9-18.2,8.4-18.6,19.6
	c-0.4,9.9,4.7,21.2,16,21.2C243.9,272.5,248.7,234.8,226.8,231.9z M225,268.3c-12.5,1.9-15.6-31.8-3.5-32.3
	c7.6,0.3,10.6,9,10.9,15.4C232.6,256.1,231,267.4,225,268.3z"/>
<path fill="#FFFFFF" d="M284.9,231.1c-1.8,4.8-3.7,9.5-5.8,14.1c-1.7,3.8-3.5,7.7-5.5,11.4c-1.7,3.2-5.3,6.6-6.6,9.9
	c0,0-0.1,0.1-0.1,0.1c-0.5-1.3-1.7-2.6-2.3-3.9c-1.6-3.5-2.5-7.4-3.3-11.2c-1.2-5.5-2.1-11.1-2.7-16.7c-0.4-3.9-9-1.8-8.6,2.3
	c1,9.1,3.2,40.7,18.5,35.8c7.7-2.5,12.2-13,15.5-19.6c3.4-6.9,6.4-14,9.1-21.3C294.8,227.5,286.2,227.6,284.9,231.1z"/>
<path fill="#FFFFFF" d="M325.7,233.9c3,0,9.2-4.5,3.4-4.5c-8.5,0-17,0-25.5,0c-1.4,0-5.7,0.8-6,2.8c-0.7,5.4-1.3,10.8-1.8,16.3
	c-0.5,5.2-2.9,15-0.7,20.1c1.8,4.1,8.4,1.7,11.8,1.2c6.6-1.1,13.2-2.2,19.9-3.4c3.9-0.7,7.2-5.4,1.3-4.3c-5.2,0.9-10.4,1.9-15.5,2.7
	c-2.8,0.5-6.1,0.5-8.8,1.4c0.1-0.7-0.2-1.8-0.3-2.4c-0.3-3.9-0.1-7.8,0.2-11.8c4.7,0,9.3,0,14,0c1.9,0,4.5-0.4,6.1-1.6
	c1.1-0.9,1.4-1.9-0.5-1.9c-6.4,0-12.8,0-19.2,0c0.5-4.9,1.2-9.7,1.9-14.5C312.4,233.9,319,233.9,325.7,233.9z"/>
<path fill="#FFFFFF" d="M202.1,271.9c-4.5,1.6-9,3.1-13.6,4.5c-0.6,0.2-1.4,0.3-2.2,0.5c-0.2-1.6-0.6-3.7-0.6-4.2
	c-0.3-6.3-0.2-12.5-0.5-18.8c-0.1-3.5,0.2-8.2-1.6-11.3c-2-3.3-10.2-0.1-7.8,3.8c2.3,3.8,0.9,12.5,1,16.9c0.1,5.3-0.8,12.5,0.9,17.7
	c2.7,7.9,20.9-1.5,26-3.2C208.8,276,207.4,270.1,202.1,271.9z"/>
<path fill="#A22832" d="M155.7,244.6c-9.6-0.7-18.1,14-18.1,14s-17-14-19.2,0c-2.2,14,30.3,22.5,30.3,22.5S165.3,245.3,155.7,244.6z
	"/>
<path fill="#A22832" d="M392.4,237.9c-14.8-8.5-24,8.1-24,8.1s-12.1-19.3-17.7-9.5s16.3,31.9,16.3,31.9S407.2,246.3,392.4,237.9z"/>
</svg>
