<?xml version="1.0" encoding="utf-8"?>
<!-- Generator: Adobe Illustrator 18.1.0, SVG Export Plug-In . SVG Version: 6.00 Build 0)  -->
<!DOCTYPE svg PUBLIC "-//W3C//DTD SVG 1.1//EN" "http://www.w3.org/Graphics/SVG/1.1/DTD/svg11.dtd">
<svg version="1.1" id="Layer_1" xmlns="http://www.w3.org/2000/svg" xmlns:xlink="http://www.w3.org/1999/xlink" x="0px" y="0px"
	 viewBox="0 0 500 500" enable-background="new 0 0 500 500" xml:space="preserve">
<rect x="-0.7" fill="#CC4F4C" width="502.9" height="500"/>
<g>
	
		<rect x="183.8" y="112.2" transform="matrix(0.9889 0.1487 -0.1487 0.9889 24.9409 -26.3506)" fill="#116446" width="9.9" height="82.9"/>
	<path fill="#FFFFFF" d="M114.9,217.1c5.3-35.3,38.3-59.7,73.6-54.4c35.3,5.3,59.7,38.3,54.4,73.6"/>
	<polygon fill="#E4758C" points="207,392.3 103.4,376.8 114.9,217.1 242.9,236.4 	"/>
	<circle fill="#116446" cx="167.8" cy="300.5" r="30.8"/>
</g>
<rect x="307.8" y="112.2" transform="matrix(-0.9889 0.1487 -0.1487 -0.9889 644.9131 259.0175)" fill="#116446" width="9.9" height="82.9"/>
<path fill="#FFFFFF" d="M386.5,217.1c-5.3-35.3-38.3-59.7-73.6-54.4c-35.3,5.3-59.7,38.3-54.4,73.6"/>
<polygon fill="#A52831" points="294.5,392.3 398.1,376.8 386.5,217.1 258.6,236.4 "/>
<circle fill="#116446" cx="333.7" cy="300.5" r="30.8"/>
<rect x="251.1" y="219.8" transform="matrix(0.9886 -0.1509 0.1509 0.9886 -30.3522 51.2808)" fill="#FFFFFF" width="143.4" height="11.8"/>
<rect x="107.6" y="219.8" transform="matrix(-0.9886 -0.1509 0.1509 -0.9886 322.4183 475.8003)" fill="#FFFFFF" width="143.4" height="11.8"/>
</svg>
