<?xml version="1.0" encoding="utf-8"?>
<!-- Generator: Adobe Illustrator 18.1.0, SVG Export Plug-In . SVG Version: 6.00 Build 0)  -->
<!DOCTYPE svg PUBLIC "-//W3C//DTD SVG 1.1//EN" "http://www.w3.org/Graphics/SVG/1.1/DTD/svg11.dtd">
<svg version="1.1" id="Layer_1" xmlns="http://www.w3.org/2000/svg" xmlns:xlink="http://www.w3.org/1999/xlink" x="0px" y="0px"
	 viewBox="0 0 500 500" enable-background="new 0 0 500 500" xml:space="preserve">
<rect fill="#A42831" width="500" height="500"/>
<g>
	<g>
		<path fill="#D1D1D1" d="M314,196.1c-0.2,0-0.5,0-0.7-0.1c-0.9-0.4-1.4-1.5-1-2.4c1.8-4.4,4.1-11.4,4.4-16.2
			c-1.6,1.1-3.4,1.8-5.2,1.7c-3.6-0.2-4.9-1.9-5.4-2.9c-0.7-1.4-0.5-3.1,0.6-4.6c1.3-1.8,4.4-3.5,8.9-2.8c1,0.2,1.9,0.6,2.6,1.2
			c0.5-1,1-2,1.2-3.1c0.6-2.6,0.5-6-3.5-7.8c-0.9-0.4-1.4-1.5-0.9-2.4c0.4-0.9,1.5-1.4,2.4-0.9c4.8,2.1,6.8,6.6,5.6,12
			c-0.5,2.1-1.5,4.2-2.8,6.1c1.3,7-3.8,19.5-4.5,21.1C315.4,195.7,314.8,196.1,314,196.1z M313.5,172.4c-2,0-3.3,0.7-3.9,1.5
			c-0.2,0.2-0.3,0.5-0.2,0.8c0.1,0.2,0.7,0.7,2.2,0.8c1.4,0,3-0.9,4.4-2.3c-0.2-0.3-0.5-0.5-1-0.5
			C314.5,172.5,314,172.4,313.5,172.4z"/>
	</g>
	<g>
		<path fill="#D1D1D1" d="M176.1,207.2l-1.3-13.8c-0.1-0.6-1.6-14.7-12.9-14.7c-1,0-1.9-0.8-1.9-1.9c0-1,0.8-1.9,1.9-1.9
			c7.9,0,12.4,5.3,14.6,10.6c2.5-8.6,8.1-21.8,18.7-21.8c1,0,1.9,0.8,1.9,1.9c0,1-0.8,1.9-1.9,1.9c-10.1,0-15.5,18.7-16.7,25.9
			L176.1,207.2z"/>
	</g>
	<g>
		<polygon fill="#D1D1D1" points="216,243.5 243.6,243.5 216,252.6 237.6,261.1 211.5,261.1 211.5,243.5 		"/>
	</g>
	<g>
		<rect x="135.2" y="296.2" fill="#FFFFFF" width="4.9" height="58.6"/>
	</g>
	<g>
		<rect x="151.9" y="296.2" fill="#FFFFFF" width="4.9" height="58.6"/>
	</g>
	<g>
		<path fill="#E4758C" d="M52.5,292.5c0,0,32.4,4.4,47.2-38.8s81.8-95.2,112.1-43c32.1,55.4-29.7,118.7-100,107.4
			C51.8,308.4,52.5,292.5,52.5,292.5z"/>
	</g>
	<g>
		<path fill="#A52831" d="M104.8,292.4c0,0,36.5-56.9,52.5-35S144.2,293.8,104.8,292.4z"/>
	</g>
	<g>
		<path fill="#FFFFFF" d="M181,239.9c-8.8,0-15.9-5.3-15.9-11.7c0-1,0.8-1.9,1.9-1.9c1,0,1.9,0.8,1.9,1.9c0,4.3,5.6,8,12.2,8
			s12.2-3.7,12.2-8c0-1,0.8-1.9,1.9-1.9s1.9,0.8,1.9,1.9C197,234.6,189.8,239.9,181,239.9z"/>
	</g>
	<g>
		<polygon fill="#D1D1D1" points="276,243.5 248.4,243.5 276,252.6 254.4,261.1 280.5,261.1 280.5,243.5 		"/>
	</g>
	<g>
		<rect x="351.8" y="296.2" fill="#FFFFFF" width="4.9" height="58.6"/>
	</g>
	<g>
		<rect x="335.2" y="296.2" fill="#FFFFFF" width="4.9" height="58.6"/>
	</g>
	<g>
		<path fill="#E4758C" d="M439.5,292.5c0,0-32.4,4.4-47.2-38.8s-81.8-95.2-112.1-43c-32.1,55.4,29.7,118.7,100,107.4
			C440.1,308.4,439.5,292.5,439.5,292.5z"/>
	</g>
	<g>
		<path fill="#A52831" d="M387.2,292.4c0,0-36.5-56.9-52.5-35C318.6,279.2,347.8,293.8,387.2,292.4z"/>
	</g>
	<g>
		<path fill="#CC4F4C" d="M248,153.8c0,0-14.4-25.1-27.2-14.8c-12.8,10.3,32.5,40.5,32.5,40.5s48.2-36.4,27.2-43
			C259.5,129.9,248,153.8,248,153.8z"/>
	</g>
	<path fill="#FFFFFF" d="M330.1,235.9l-4.5-3.2c0.8-1.4,1.2-2.9,1.2-4.5c0-1-0.8-1.9-1.9-1.9c-1,0-1.9,0.8-1.9,1.9
		c0,1.4-0.6,2.7-1.5,3.8c0,0,0,0-0.1,0c0,0,0,0,0,0c-2.1,2.4-6.1,4.1-10.7,4.1c-6.6,0-12.2-3.7-12.2-8c0-1-0.8-1.9-1.9-1.9
		c-1,0-1.9,0.8-1.9,1.9c0,1.6,0.4,3.1,1.2,4.5l-4.7,3.2c-0.8,0.6-1.1,1.7-0.5,2.6c0.4,0.5,0.9,0.8,1.5,0.8c0.4,0,0.7-0.1,1-0.3
		l4.9-3.4c1.4,1.3,3.2,2.3,5.2,3.1l-1.3,5c-0.3,1,0.3,2,1.3,2.3c0.2,0,0.3,0.1,0.5,0.1c0.8,0,1.6-0.6,1.8-1.4l1.3-4.9
		c1.2,0.2,2.4,0.3,3.7,0.3c1.5,0,2.9-0.2,4.3-0.4l1.6,4.7c0.3,0.8,1,1.3,1.8,1.3c0.2,0,0.4,0,0.6-0.1c1-0.3,1.5-1.4,1.2-2.3
		l-1.5-4.6c1.7-0.7,3.3-1.7,4.5-2.8l4.7,3.3c0.3,0.2,0.7,0.3,1.1,0.3c0.6,0,1.1-0.3,1.5-0.8C331.2,237.6,331,236.5,330.1,235.9z"/>
	<g>
		<g>
			<circle fill="#D3403E" cx="316.7" cy="189.1" r="5"/>
		</g>
		<g>
			<path fill="#D3403E" d="M316.7,188.9c0,0-15.7,12.4-17.7,8.8c-2-3.6-0.4-19.6,2.5-19.6C305.5,178.1,316.7,188.9,316.7,188.9z"/>
		</g>
		<g>
			<path fill="#D3403E" d="M316.7,189.8c0,0,15.7,12.4,17.7,8.8c2-3.6,0.4-19.6-2.5-19.6C327.9,179,316.7,189.8,316.7,189.8z"/>
		</g>
	</g>
</g>
</svg>
