<?xml version="1.0" encoding="utf-8"?>
<!-- Generator: Adobe Illustrator 18.1.0, SVG Export Plug-In . SVG Version: 6.00 Build 0)  -->
<!DOCTYPE svg PUBLIC "-//W3C//DTD SVG 1.1//EN" "http://www.w3.org/Graphics/SVG/1.1/DTD/svg11.dtd">
<svg version="1.1" id="Layer_1" xmlns="http://www.w3.org/2000/svg" xmlns:xlink="http://www.w3.org/1999/xlink" x="0px" y="0px"
	 viewBox="0 0 500 500" enable-background="new 0 0 500 500" xml:space="preserve">
<rect x="-0.7" fill="#CC4F4C" width="502.9" height="500"/>
<path fill="#A52831" d="M413.8,153.7l-17.6,0c-7.6-10.7-16.8-16.1-27.3-16.1c-18.5,0-35.7,17.4-43.6,26.8
	c-6.2-9.7-19.6-26.8-36.9-26.8c-9.6,0-18.8,5.1-27.3,15.3c-6.6,7.9-9.1,17-7.6,27.3c0,0.1,0.1,0.3,0.1,0.4c-5.7-2.6-13.2-5-21.7-5
	c-6.8,0-13.2,2.3-18.4,4.8c0.8-7.8-0.9-15.2-5-22.1c-8.2-13.8-18.4-20.9-30.4-20.9c-18.5,0-35.7,17.4-43.6,26.8
	c-6.2-9.7-19.6-26.8-37-26.8c-9.6,0-18.8,5.1-27.3,15.3c-0.2,0.2-0.3,0.5-0.5,0.7l-14.7,0l0,9.7l9.2,0c-1.9,5.2-2.5,10.9-1.6,16.9
	c5.5,37.6,65.9,77.8,68.5,79.5c0.8,0.5,1.7,0.8,2.7,0.8c0.8,0,1.5-0.2,2.2-0.5c2.5-1.3,58.4-30.7,73.7-65.7
	c2.8-2.1,12.4-8.8,22.1-8.8c12.8,0,23.2,6.9,26,8.9c15.3,33,61.8,63.9,64.1,65.4c0.8,0.5,1.7,0.8,2.7,0.8c0.8,0,1.5-0.2,2.2-0.5
	c2.7-1.4,65.3-34.3,76-71.9c2.5-8.6,2-16.9-1.2-24.6l12.1,0L413.8,153.7z M134.1,249.8c-11.1-7.8-57.5-41.7-61.8-71.2
	c-1.1-7.5,0.7-13.9,5.5-19.6c6.5-7.8,13.2-11.8,19.8-11.8c14.7,0,28.1,20.2,32,27.9c0.8,1.5,2.3,2.5,4,2.7c1.7,0.1,3.3-0.6,4.3-2
	c0.2-0.3,20.4-28.5,40.2-28.5c8.3,0,15.8,5.4,22.1,16.1c4,6.8,4.9,13.9,2.6,21.8C194.3,214.8,145.8,243.3,134.1,249.8z M393.6,185.3
	c-8.5,29.7-57,58.1-68.6,64.6c-11.1-7.8-57.5-41.7-61.8-71.2c-1.1-7.5,0.7-13.9,5.5-19.6c6.5-7.8,13.2-11.8,19.8-11.8
	c14.7,0,28.1,20.2,32,27.9c0.8,1.5,2.3,2.5,4,2.7c1.7,0.1,3.3-0.6,4.3-2c0.2-0.3,20.4-28.5,40.2-28.5c8.3,0,15.8,5.4,22.1,16.1
	C395,170.3,395.8,177.4,393.6,185.3z"/>
<g>
	<path fill="#A52831" d="M132.6,362.5c-17.2,0-30.4-5.3-39-15.9c-15.4-18.7-11.2-47.1-10.4-51.6c0.7-5.9,2.8-11.7,5.8-16.5
		c4.4-6.9,10.3-10.7,16.5-10.7c5.6,0,10.3,2.1,13.5,6.1c2.8,3.4,4.3,8,4.3,12.9c0,9.8-6.2,20.3-17.8,20.3c-2.1,0-3.7-1.7-3.7-3.7
		s1.7-3.7,3.7-3.7c7.6,0,10.3-7.6,10.3-12.8c0-3.2-0.9-6.1-2.6-8.2c-1.8-2.2-4.4-3.4-7.7-3.4c-6.7,0-13.2,9.3-14.8,19.9
		c0,0.2,0,0.4-0.1,0.7c0,0,0,0.1-0.1,0.3c-0.1,1.2-0.2,2.4-0.2,3.5c0,6.2,2.2,20.5,22.1,20.5c20.8,0,34.3-13.2,47.4-26.1
		c11-10.8,21.4-20.9,35.4-23.1c14.7-2.3,24.2-0.8,30.9,4.9c6.4,5.5,9.5,14.8,9.5,28.3C235.7,336.5,189.5,362.5,132.6,362.5z"/>
</g>
<g>
	<path fill="#A52831" d="M233.2,304.4c0-13.5,3.1-22.8,9.5-28.3c6.6-5.7,16.1-7.2,30.9-4.9c14,2.2,24.4,12.3,35.4,23.1
		c13.1,12.8,26.6,26.1,47.4,26.1c20,0,22.1-14.3,22.1-20.5c0-1.2-0.1-2.4-0.2-3.5c0-0.2-0.1-0.3-0.1-0.3c0-0.2-0.1-0.4-0.1-0.7
		c-1.5-10.6-8.1-19.9-14.8-19.9c-3.3,0-5.9,1.1-7.7,3.4c-1.7,2.1-2.6,5-2.6,8.2c0,5.1,2.7,12.8,10.3,12.8c2.1,0,3.7,1.7,3.7,3.7
		s-1.7,3.7-3.7,3.7c-11.6,0-17.8-10.4-17.8-20.3c0-4.9,1.5-9.5,4.3-12.9c3.3-4,7.9-6.1,13.5-6.1c6.2,0,12,3.8,16.5,10.7
		c3.1,4.8,5.1,10.6,5.8,16.5c0.8,4.5,4.9,32.9-10.4,51.6c-8.7,10.5-21.8,15.9-39,15.9C279.4,362.5,233.2,336.5,233.2,304.4z"/>
</g>
</svg>
