<?xml version="1.0" encoding="utf-8"?>
<!-- Generator: Adobe Illustrator 18.1.0, SVG Export Plug-In . SVG Version: 6.00 Build 0)  -->
<!DOCTYPE svg PUBLIC "-//W3C//DTD SVG 1.1//EN" "http://www.w3.org/Graphics/SVG/1.1/DTD/svg11.dtd">
<svg version="1.1" id="Layer_1" xmlns="http://www.w3.org/2000/svg" xmlns:xlink="http://www.w3.org/1999/xlink" x="0px" y="0px"
	 viewBox="0 0 500 500" enable-background="new 0 0 500 500" xml:space="preserve">
<rect fill="#A42831" width="500" height="500"/>
<g>
	<path fill="#D1D1D1" d="M259.6,436.7c-31.1-25.2-25.3-46.8-12.4-93.9c1-3.7,2-7.5,3.1-11.5c12.5-46.8,5.7-67-3.7-94.8
		c-1.8-5.3-3.7-10.9-5.5-16.9c-10.4-33.9-9.8-55.4-9.6-64.5c0-1,0-1.9,0-2.6h2.7c0,0.7,0,1.6,0,2.6c-0.2,9-0.8,30.2,9.5,63.7
		c1.8,6,3.7,11.5,5.5,16.9c9.2,27.2,16.5,48.8,3.8,96.4c-1.1,4-2.1,7.9-3.1,11.5c-12.9,47.4-18.2,67,11.5,91.2L259.6,436.7z"/>
</g>
<g>
	<path fill="#D1D1D1" d="M207,441.8l-1.7-2.1c0.6-0.5,61.4-51.3,49.1-126c-6.8-41.2,6-66.2,17.9-79.9c13-14.9,27.4-20,28-20.2
		l0.9,2.5c-0.6,0.2-56.8,20.5-44.1,97.2C269.6,389.5,207.6,441.2,207,441.8z"/>
</g>
<g>
	<path fill="#D1D1D1" d="M243.8,317c-1.7,0-2.9-0.4-3.6-1.2c-0.4-0.4-0.8-1.2-0.7-2.4c0.3-2.8,2.2-4.5,5.4-4.5c3.6,0,8.4,2.1,10.3,3
		l0.7-0.2c4.6-1.3,8.9-2.5,11.6-2.5c2.9,0,3.6,1.5,3.7,2.4c0.1,1-0.1,1.9-0.8,2.7c-1,1.2-2.9,1.7-5.9,1.7c-4.3,0-9.3-1.2-9.5-1.2
		l-0.1,0C250.6,316,246.6,317,243.8,317z M244.9,311.7c-2.2,0-2.6,1-2.7,2c0,0.1,0,0.3,0,0.3c0,0,0.3,0.3,1.7,0.3
		c1.8,0,4.4-0.5,7.2-1.3C249.1,312.4,246.7,311.7,244.9,311.7z M260.9,313.2c1.2,0.1,2.5,0.2,3.6,0.2c2.9,0,3.7-0.6,3.9-0.8
		c0.1-0.1,0.2-0.2,0.1-0.5c-0.1,0-0.3-0.1-1-0.1C265.9,312,263.5,312.5,260.9,313.2z"/>
</g>
<g>
	<path fill="#D1D1D1" d="M273.9,341.9c-11-0.2-17.2-18.4-19.2-25.4c-3.9,5.2-10.3,14.6-10.3,18.3h-2.7c0-6,11.2-20.5,12.5-22.1
		l1.7-2.2l0.6,2.7c1.7,7.2,8,25.8,17.3,26L273.9,341.9z"/>
</g>
<g>
	<path fill="#E4758C" d="M392.5,183.9c2.5-43.4-49.1-25.5-49.1-25.5s1.4-49.6-30.8-39c-29.4,9.7-14.6,80.3-11.9,92.4l-26.8,14
		c1.8-1.1,14.7-1.1,18.7,3.6c4,4.7,9.9,8.4,8.5,6.6c-1-1.3-0.3-15.3,1-22.4C317.1,215.3,390.4,221.1,392.5,183.9z"/>
</g>
<g>
	<path fill="#CC4F4C" d="M234,149.7c15.1-15.7,68-71.9,40.1-88.8C248,45,225.8,91.4,225.8,91.4s-39.4-48.7-56.3-17.7
		c-22.9,42.2,47.7,71.2,62.1,76.6c-2.2,7.8-7,26-5.2,26.8c2.2,1.1,4.7-14.4,13.5-15.2c8.9-0.8,16.2,0.8,16.2-1.2
		C256.2,159.3,240.1,153.9,234,149.7z"/>
</g>
</svg>
