<?xml version="1.0" encoding="utf-8"?>
<!-- Generator: Adobe Illustrator 18.1.0, SVG Export Plug-In . SVG Version: 6.00 Build 0)  -->
<!DOCTYPE svg PUBLIC "-//W3C//DTD SVG 1.1//EN" "http://www.w3.org/Graphics/SVG/1.1/DTD/svg11.dtd">
<svg version="1.1" id="Layer_1" xmlns="http://www.w3.org/2000/svg" xmlns:xlink="http://www.w3.org/1999/xlink" x="0px" y="0px"
	 viewBox="0 0 500 500" enable-background="new 0 0 500 500" xml:space="preserve">
<rect x="-2.2" fill="#CC4F4C" width="502.9" height="500"/>
<polygon fill="#FFFFFF" points="238.4,170.6 234.1,151.7 111.1,167.4 111.7,186.7 107.4,187.2 109,199.7 115.6,198.9 161.5,383.4 
	239.4,373.5 237.6,183.4 244.2,182.5 242.6,170.1 "/>
<path fill="#116446" d="M238.1,233.6c-1.6,0-3.2,0.1-4.8,0.3c-24.8,3.1-42.3,25.8-39.1,50.5c2.9,22.8,22.4,39.4,44.8,39.4
	L238.1,233.6z"/>
<polygon fill="#FFFFFF" points="250.1,170.6 254.3,151.7 377.3,167.4 376.7,186.7 381,187.2 379.4,199.7 372.8,198.9 326.9,383.4 
	249.1,373.5 250.8,183.4 244.2,182.5 245.8,170.1 "/>
<path fill="#116446" d="M250.4,233.6c1.6,0,3.2,0.1,4.8,0.3c24.8,3.1,42.3,25.8,39.1,50.5c-2.9,22.8-22.4,39.4-44.8,39.4
	L250.4,233.6z"/>
</svg>
