<?xml version="1.0" encoding="utf-8"?>
<!-- Generator: Adobe Illustrator 18.1.0, SVG Export Plug-In . SVG Version: 6.00 Build 0)  -->
<!DOCTYPE svg PUBLIC "-//W3C//DTD SVG 1.1//EN" "http://www.w3.org/Graphics/SVG/1.1/DTD/svg11.dtd">
<svg version="1.1" id="Layer_1" xmlns="http://www.w3.org/2000/svg" xmlns:xlink="http://www.w3.org/1999/xlink" x="0px" y="0px"
	 viewBox="0 0 500 500" enable-background="new 0 0 500 500" xml:space="preserve">
<rect fill="#A42831" width="500" height="500"/>
<g>
	<g>
		<path fill="#E4758C" d="M192.3,272.1c-3.1-19.3-82.6-43.9-58.6-81c15.4-23.9,53.2,23.9,53.2,23.9s14.7-54.3,37.8-45.5
			c29.3,11.2-15.4,90.3-33.2,116.5"/>
	</g>
	<g>
		<path fill="#E4758C" d="M227.1,296.2c7.7-16.8-3.5-70.1,17.8-74.8s11.6,30.1,11.6,30.1s21.6-25.9,29.2-12.1
			c7.6,13.8-27.3,24.4-39.3,34.1S227.1,296.2,227.1,296.2z"/>
	</g>
	<g>
		<g>
			<path fill="#FFFFFF" d="M154,267.7c0,0-1.1-0.2-3-0.5l0.5-3c2,0.3,3.1,0.5,3.1,0.5L154,267.7z"/>
		</g>
		<g>
			<path fill="#FFFFFF" d="M75.6,348.9c-2.2-0.1-4.5-0.4-6.6-1l0.8-3c1.9,0.5,3.9,0.8,5.9,0.9L75.6,348.9z M82.2,348.5l-0.5-3
				c2-0.3,3.9-0.8,5.8-1.5l1.1,2.9C86.5,347.6,84.4,348.2,82.2,348.5z M62.9,345.4c-2-1.1-3.8-2.4-5.4-4l2.1-2.2
				c1.4,1.4,3,2.5,4.7,3.5L62.9,345.4z M94.5,344l-1.6-2.6c1.7-1.1,3.3-2.3,4.7-3.7l2.2,2.2C98.2,341.4,96.5,342.8,94.5,344z
				 M53.3,336.3c-1.1-1.8-2.1-3.8-2.8-6l2.9-1c0.7,1.9,1.5,3.7,2.6,5.4L53.3,336.3z M103.9,334.6l-2.7-1.6c1-1.7,1.8-3.5,2.3-5.4
				l3,0.8C105.9,330.6,105,332.7,103.9,334.6z M48.8,324c-0.3-2.1-0.5-4.2-0.6-6.5l3.1-0.1c0,2.1,0.2,4.1,0.5,6.1L48.8,324z
				 M104.2,321.8c0-2-0.3-4-0.9-5.7l2.9-1c0.7,2.1,1,4.3,1.1,6.7L104.2,321.8z M77,314l-2.8-1.3c1-2.2,2.3-4.1,4-5.6l2.1,2.3
				C78.9,310.7,77.8,312.2,77,314z M51.5,311.3l-3.1-0.2c0.2-2.2,0.4-4.3,0.8-6.4l3,0.6C51.9,307.1,51.7,309.2,51.5,311.3z
				 M100.5,311.1c-1.2-1.5-2.7-2.7-4.4-3.5l1.4-2.7c2.1,1.1,3.9,2.5,5.4,4.3L100.5,311.1z M85.1,306.6l-1-2.9c2.2-0.7,4.5-1,6.8-0.8
				l-0.3,3.1C88.8,305.8,86.8,306,85.1,306.6z M53.8,299.3l-2.9-0.9c0.7-2.1,1.5-4.1,2.4-6l2.8,1.3
				C55.1,295.4,54.4,297.3,53.8,299.3z M59,288.4l-2.6-1.7c1.2-1.8,2.6-3.5,4.1-5.1l2.3,2.1C61.4,285.1,60.1,286.7,59,288.4z
				 M67.2,279.5l-2-2.4c1.6-1.3,3.4-2.6,5.3-3.8l1.6,2.6C70.4,277,68.7,278.2,67.2,279.5z M77.5,273l-1.3-2.8
				c1.9-0.9,3.9-1.7,5.9-2.5l1.1,2.9C81.2,271.3,79.3,272.1,77.5,273z M89.1,268.7l-0.8-3c2-0.6,4.1-1.1,6.2-1.5l0.6,3
				C93.1,267.6,91,268.1,89.1,268.7z M144.9,266.2c-1.9-0.2-3.9-0.5-6.2-0.7l0.3-3.1c2.3,0.2,4.4,0.5,6.3,0.7L144.9,266.2z
				 M101.3,266.1l-0.5-3.1c2.1-0.3,4.2-0.6,6.3-0.8l0.3,3.1C105.4,265.6,103.3,265.8,101.3,266.1z M132.4,265.1
				c-2-0.1-4.1-0.2-6.2-0.3l0.1-3.1c2.2,0.1,4.3,0.2,6.4,0.3L132.4,265.1z M113.7,264.9l-0.2-3.1c2.2-0.1,4.3-0.2,6.4-0.2l0,3.1
				C117.9,264.8,115.8,264.8,113.7,264.9z"/>
		</g>
		<g>
			<path fill="#FFFFFF" d="M75.2,322.9h-3.1c0-1.1,0.1-2.2,0.2-3.3l3.1,0.3C75.3,320.9,75.2,321.8,75.2,322.9z"/>
		</g>
	</g>
	<g>
		<g>
			<path fill="#FFFFFF" d="M83.8,244.8v-3.1c0.9,0,1.8-0.1,2.6-0.4l0.9,3C86.2,244.6,85,244.8,83.8,244.8z"/>
		</g>
		<g>
			<path fill="#FFFFFF" d="M97.9,265c-2.2-0.2-4.4-0.6-6.4-1l0.6-3c1.9,0.4,4,0.7,6.1,0.9L97.9,265z M85.2,262.5
				c-2.2-0.7-4.2-1.6-6.1-2.5l1.4-2.7c1.7,0.9,3.6,1.7,5.6,2.3L85.2,262.5z M73.6,256.3c-1.8-1.5-3.3-3.2-4.5-5l2.6-1.7
				c1,1.6,2.4,3,3.9,4.3L73.6,256.3z M66.3,245c-0.4-1.5-0.6-3.1-0.6-4.6c0-0.8,0-1.5,0.1-2.2l3.1,0.4c-0.1,0.6-0.1,1.2-0.1,1.9
				c0,1.3,0.2,2.6,0.5,3.9L66.3,245z M93.3,240.5l-2.2-2.1c1.3-1.4,2.2-3.1,2.7-4.8l3,0.8C96.1,236.6,94.9,238.8,93.3,240.5z
				 M70.5,233l-2.8-1.4c1-2.1,2.4-4,4-5.6l2.2,2.2C72.5,229.6,71.4,231.2,70.5,233z M93.5,228.4c-0.7-1.5-1.9-2.7-3.7-3.4l1.2-2.8
				c2.5,1.1,4.3,2.8,5.3,5L93.5,228.4z M78.6,225.1l-1.2-2.8c2.1-0.9,4.3-1.3,6.6-1.3l0.2,3.1h-0.2C82.2,224,80.4,224.4,78.6,225.1z
				"/>
		</g>
		<g>
			<path fill="#FFFFFF" d="M107.7,265.5c-1.1,0-2.1,0-3.1,0l0.1-3.1c1,0,2,0,3,0V265.5z"/>
		</g>
	</g>
	<g>
		<g>
			<path fill="#FFFFFF" d="M107.8,195.7h-3.1c0-0.9-0.1-1.7-0.4-2.5l2.9-1.1C107.6,193.2,107.8,194.4,107.8,195.7z"/>
		</g>
		<g>
			<path fill="#FFFFFF" d="M100.8,189.9c-1.4-0.6-3.2-1.2-5.5-1.6l0.6-3c2.6,0.5,4.6,1.1,6.3,1.9L100.8,189.9z M89.3,187.4l-1.7-0.2
				c-1.5-0.2-3-0.3-4.5-0.5l0.4-3.1c1.5,0.2,3,0.4,4.4,0.5l1.7,0.2L89.3,187.4z M77,185.7c-2.3-0.5-4.3-1.1-6.1-1.8L72,181
				c1.7,0.6,3.5,1.2,5.7,1.6L77,185.7z M65.1,180.8c-1.8-1.4-3.4-3-4.5-4.9l2.6-1.7c1,1.6,2.2,2.9,3.8,4L65.1,180.8z M58.1,169.8
				c-0.5-1.9-0.7-4.1-0.7-6.4l3.1,0c0,2.1,0.2,4,0.7,5.7L58.1,169.8z M76.9,164.9l-0.5-3.1c2-0.3,3.7-0.9,5.1-1.9l1.7,2.6
				C81.5,163.8,79.4,164.5,76.9,164.9z M60.7,157.4l-3.1-0.3c0.2-2.2,0.6-4.3,1.2-6.3l3,0.8C61.3,153.4,60.9,155.4,60.7,157.4z
				 M87.7,157.2l-2.8-1.2c0.7-1.5,1-3.3,1.1-5.4l3.1,0.1C88.9,153.2,88.5,155.4,87.7,157.2z M63.9,146.2l-2.7-1.5
				c1.1-2.1,2.5-3.8,4-5.3l2.1,2.3C66,143,64.8,144.5,63.9,146.2z M85,145.2c-0.7-1.7-1.7-3.2-3.1-4.4l2-2.4
				c1.7,1.5,3.1,3.4,3.9,5.6L85,145.2z M71.9,138.9l-1-2.9c2.2-0.7,4.6-0.9,6.8-0.5l-0.6,3C75.5,138.2,73.6,138.4,71.9,138.9z"/>
		</g>
		<g>
			<path fill="#FFFFFF" d="M70.1,165c-1.9-0.2-3.2-0.5-3.2-0.6l0.8-3c0,0,1.1,0.3,2.8,0.5L70.1,165z"/>
		</g>
	</g>
	<g>
		<g>
			<path fill="#FFFFFF" d="M299.2,222.6c-1.9-1.4-2.5-2.7-2.6-2.9l2.9-1.1l-1.4,0.6l1.4-0.6c0,0,0.3,0.7,1.6,1.6L299.2,222.6z"/>
		</g>
		<g>
			<path fill="#FFFFFF" d="M419.6,233.2c-0.7,0-1.3,0-1.9-0.1l0.2-3.1c1.9,0.1,4,0,5.8-0.2l0.4,3.1
				C422.6,233.1,421.1,233.2,419.6,233.2z M411.2,232.1c-2.2-0.6-4.2-1.6-6-2.7l1.7-2.6c1.5,1,3.2,1.8,5.1,2.3L411.2,232.1z
				 M430.3,231.3l-1.1-2.9c1.8-0.7,3.6-1.6,5.2-2.6l1.7,2.6C434.3,229.5,432.4,230.5,430.3,231.3z M318.9,227l-1,0l0-3.1l1,0
				c1.2,0,2.7-0.4,4.3-1.1l1.3,2.8C322.4,226.5,320.6,227,318.9,227z M311.5,226.6c-2.3-0.3-4.4-0.7-6.3-1.2l0.9-3
				c1.7,0.5,3.6,0.9,5.8,1.1L311.5,226.6z M400.4,224.6c-1.3-1.9-2.1-4-2.6-6.2l3-0.6c0.4,1.8,1.1,3.6,2.1,5.1L400.4,224.6z
				 M441.1,224.2l-2.2-2.1c1.3-1.4,2.5-2.9,3.6-4.6l2.6,1.7C443.9,221,442.6,222.7,441.1,224.2z M329.9,222.2l-1.8-2.5
				c1.4-1.1,3-2.3,4.7-3.8l2,2.3C333,219.8,331.4,221.1,329.9,222.2z M339.4,214l-2.1-2.2c1.4-1.4,2.9-2.8,4.3-4.3l2.2,2.2
				C342.3,211.2,340.8,212.6,339.4,214z M448,213.4l-2.9-1.2c0.7-1.8,1.3-3.7,1.8-5.6l3,0.7C449.4,209.4,448.8,211.5,448,213.4z
				 M400.8,212.2l-3-0.5c0.4-2.2,1.1-4.3,2.2-6.3l2.7,1.5C401.8,208.6,401.1,210.4,400.8,212.2z M348.1,205.2l-2.2-2.1l4.3-4.4
				l2.2,2.1L348.1,205.2z M406.2,202.6l-2.1-2.3c1.6-1.5,3.5-2.7,5.6-3.6l1.2,2.8C409.2,200.3,407.6,201.3,406.2,202.6z M450.8,201
				l-3.1-0.2c0.1-0.8,0.1-1.6,0.1-2.4c0-1.2-0.1-2.3-0.2-3.5l3.1-0.3c0.1,1.3,0.2,2.5,0.2,3.8C450.9,199.2,450.9,200.1,450.8,201z
				 M356.6,196.3l-2.2-2.1c1.4-1.5,2.9-2.9,4.3-4.4l2.2,2.2C359.5,193.4,358.1,194.9,356.6,196.3z M446.6,189
				c-0.5-1.9-1.1-3.8-1.9-5.6l2.8-1.2c0.9,1.9,1.6,4,2.1,6.1L446.6,189z M365.3,187.6l-2.2-2.2c1.5-1.4,3-2.9,4.5-4.3l2.1,2.3
				C368.3,184.8,366.8,186.2,365.3,187.6z M374.3,179.3l-2-2.3c1.6-1.4,3.2-2.7,4.8-4l1.9,2.4C377.4,176.7,375.9,178,374.3,179.3z
				 M441.9,178.3c-1.1-1.6-2.3-3.2-3.7-4.6l2.2-2.1c1.5,1.5,2.8,3.2,4,5L441.9,178.3z M383.9,171.9l-1.8-2.5
				c1.8-1.2,3.6-2.4,5.3-3.4l1.6,2.7C387.3,169.6,385.6,170.7,383.9,171.9z M433.8,169.9c-1.6-1.1-3.3-2.1-5-3l1.4-2.8
				c1.9,0.9,3.8,2.1,5.5,3.3L433.8,169.9z M394.3,165.9L393,163c2-0.9,4-1.6,6-2.2l0.9,3C398.1,164.3,396.2,165,394.3,165.9z
				 M423.2,164.7c-1.8-0.6-3.8-1-5.8-1.4l0.5-3c2.1,0.4,4.2,0.9,6.2,1.5L423.2,164.7z M405.6,162.7l-0.3-3.1c2.2-0.2,4.3-0.2,6.4,0
				l-0.2,3.1C409.6,162.5,407.6,162.5,405.6,162.7z"/>
		</g>
		<g>
			<path fill="#FFFFFF" d="M416.7,198l-0.4-3.1c1-0.1,2.1-0.2,3.3-0.2v3.1C418.5,197.9,417.6,197.9,416.7,198z"/>
		</g>
	</g>
	<g>
		<g>
			<path fill="#FFFFFF" d="M359.4,170l-2.8-1.3c0.6-1.3,0.6-2.4,0.6-2.4l3.1,0.1C360.3,166.6,360.3,168.2,359.4,170z"/>
		</g>
		<g>
			<path fill="#FFFFFF" d="M374.3,176.2l-2.7-1.4c0.9-1.8,1.7-3.6,2.4-5.3l2.9,1.1C376.1,172.5,375.2,174.4,374.3,176.2z
				 M348.6,176.1c-0.3,0-0.5,0-0.7,0l0.2-3.1c1.9,0.1,3.8-0.2,5.2-0.8l1.3,2.8C352.8,175.7,350.8,176.1,348.6,176.1z M341.4,173.8
				c-1.8-1.3-3.2-3.2-4.1-5.4l2.8-1.2c0.7,1.7,1.8,3.1,3.1,4.1L341.4,173.8z M378.6,164.5l-3-0.6c0.4-1.9,0.6-3.6,0.6-5.3l0-0.4
				l3.1-0.1l0,0.4C379.2,160.5,379,162.5,378.6,164.5z M335.8,162l0-0.7c0-1.9,0.3-3.9,0.8-5.8l3,0.9c-0.5,1.6-0.7,3.3-0.7,4.9
				l0,0.6L335.8,162z M375.2,152.9c-0.7-1.7-1.7-3.1-3-4.4l2.1-2.3c1.7,1.5,3,3.4,3.8,5.5L375.2,152.9z M342,151.4l-2.5-1.7
				c1.2-1.8,2.8-3.4,4.5-4.7l1.8,2.5C344.3,148.5,343,149.9,342,151.4z M367.5,145.7c-1.6-0.6-3.5-1.1-5.5-1.4l0.5-3.1
				c2.3,0.3,4.4,0.9,6.2,1.6L367.5,145.7z M350.7,145l-0.9-2.9c2-0.6,4.1-1,6.3-1.1l0.1,3.1C354.3,144.1,352.4,144.4,350.7,145z"/>
		</g>
		<g>
			<path fill="#FFFFFF" d="M368.8,184.3l-2.1-2.2c0.4-0.3,1-1,1.8-2.2l2.5,1.8C370.1,182.8,369.4,183.7,368.8,184.3z"/>
		</g>
	</g>
	<g>
		<g>
			<path fill="#FFFFFF" d="M301.7,269.4c-0.6-1.3-0.6-2.5-0.6-3.5l3.1-0.2v0.2c0,0.8,0,1.5,0.3,2.2L301.7,269.4z"/>
		</g>
		<g>
			<path fill="#FFFFFF" d="M359.7,364.7h-0.3c-2.1,0-4.3-0.5-6.3-1.4l1.3-2.8c1.6,0.7,3.2,1.1,5,1.1L359.7,364.7z M366.1,363.8
				l-0.8-3c1.8-0.5,3.6-1.2,5.4-2.1l1.4,2.7C370.1,362.4,368.1,363.2,366.1,363.8z M347.8,359.3c-1.4-1.6-2.7-3.4-3.6-5.4l2.8-1.3
				c0.9,1.8,1.9,3.3,3.1,4.7L347.8,359.3z M377.5,358l-1.9-2.5c1.5-1.1,3-2.4,4.5-3.9l2.2,2.2C380.7,355.4,379.1,356.8,377.5,358z
				 M386.4,349.2l-2.4-1.9c1.2-1.5,2.4-3.1,3.5-4.8l2.6,1.7C389,345.9,387.7,347.6,386.4,349.2z M342.1,347.7
				c-0.3-1.7-0.5-3.4-0.5-5c0-0.5,0-1,0-1.4l3.1,0.2c0,0.4,0,0.8,0,1.2c0,1.5,0.2,3,0.4,4.4L342.1,347.7z M393.3,338.8l-2.7-1.4
				c0.9-1.8,1.8-3.6,2.6-5.4l2.8,1.2C395.2,335,394.3,336.9,393.3,338.8z M345.8,335.9l-2.9-1.1c0.8-2.1,1.9-4,3.3-5.7l2.4,2
				C347.4,332.5,346.5,334.1,345.8,335.9z M352.8,327.4l-1.6-2.6c1.8-1.1,3.8-2,6-2.6l0.9,3C356.1,325.7,354.3,326.5,352.8,327.4z
				 M398.1,327.2l-2.9-0.9c0.6-1.9,1.1-3.9,1.5-5.8l3,0.6C399.3,323.2,398.7,325.2,398.1,327.2z M400.6,315l-3.1-0.3
				c0.2-1.6,0.2-3.1,0.2-4.6c0-0.4,0-0.8,0-1.3l3.1-0.1c0,0.4,0,0.9,0,1.3C400.9,311.6,400.8,313.3,400.6,315z M397.2,302.9
				c-0.4-2-0.9-3.9-1.5-5.6l2.9-1.1c0.7,1.9,1.3,4,1.7,6.2L397.2,302.9z M393.1,292.1c-1-1.6-2.2-3.1-3.6-4.5l2.2-2.2
				c1.5,1.5,2.9,3.2,4,5L393.1,292.1z M385,284c-1.6-1-3.3-1.9-5.2-2.6l1.2-2.9c2,0.8,3.9,1.8,5.7,2.9L385,284z M374.2,279.6
				c-1.8-0.4-3.8-0.8-5.8-1l0.3-3.1c2.2,0.2,4.2,0.6,6.2,1L374.2,279.6z M362.5,278.3l-0.8,0c-1.8,0-3.6,0-5.3,0l0-3.1
				c1.7,0,3.5,0,5.3,0l0.8,0L362.5,278.3z M350.2,278.2c-2.1,0-4.2-0.1-6.1-0.1l0.1-3.1c1.9,0.1,4,0.1,6.1,0.1L350.2,278.2z
				 M338,277.9c-2.2-0.1-4.2-0.2-6.1-0.3l0.2-3.1c1.9,0.1,3.9,0.2,6.1,0.3L338,277.9z M325.7,277.1c-2.3-0.2-4.3-0.4-6.1-0.6
				l0.4-3.1c1.8,0.2,3.8,0.4,6,0.6L325.7,277.1z M313.4,275.5c-2.4-0.5-4.5-1-6.1-1.7l1.1-2.9c1.5,0.6,3.4,1.1,5.6,1.5L313.4,275.5z
				"/>
		</g>
		<g>
			<path fill="#FFFFFF" d="M363.9,324.1l-0.2-3.1c1-0.1,2.1-0.1,3.2-0.1v3.1C365.9,324,364.9,324,363.9,324.1z"/>
		</g>
	</g>
</g>
</svg>
