<?xml version="1.0" encoding="utf-8"?>
<!-- Generator: Adobe Illustrator 18.1.0, SVG Export Plug-In . SVG Version: 6.00 Build 0)  -->
<!DOCTYPE svg PUBLIC "-//W3C//DTD SVG 1.1//EN" "http://www.w3.org/Graphics/SVG/1.1/DTD/svg11.dtd">
<svg version="1.1" id="Layer_1" xmlns="http://www.w3.org/2000/svg" xmlns:xlink="http://www.w3.org/1999/xlink" x="0px" y="0px"
	 viewBox="0 0 500 500" enable-background="new 0 0 500 500" xml:space="preserve">
<rect x="-0.7" fill="#CC4F4C" width="502.9" height="500"/>
<g>
	<path fill="#FFFBFD" d="M407.3,171c0,0,22.5-15.3,28.9-15.6c6.4-0.3-10.5,30.7-10.5,30.7L407.3,171z"/>
</g>
<path fill="#E4758C" d="M411.2,173.5l14.7,12.1c1.6-3,10.6-20,11.6-27.1C429.1,161.3,411.2,173.5,411.2,173.5z"/>
<g>
	<path fill="#FFFBFD" d="M392.1,167.9c0,0-15.1-19.5-20.4-19c-5.2,0.4,2.8,34.4,2.8,34.4L392.1,167.9z"/>
</g>
<g>
	<path fill="#E4758C" d="M374.6,183.2l14.8-13c-3.3-4.2-14-17-19.3-18.6C369,159.9,374.6,183.2,374.6,183.2z"/>
</g>
<path fill="#FFFBFD" d="M399.6,166c-13.1,0-24.1,8.4-27.2,19.7l-0.1,0c0,0,0,0.3-0.2,0.8c0,0.2-0.1,0.4-0.1,0.6
	c-1.1,5-5.8,20.8-21.3,25.7c-18.5,5.8-68.9,31.6-74.2,73.3c0,0,0,0,0,0.1c-0.4,2.4-0.6,4.8-0.6,7.3c0,11.9,5,22.7,13.1,30.3h-3.8
	c-12.4,0-41.1-3.9-41.1-39.9c0-17.9,17.2-32.7,33.9-46.9c15.3-13.1,29.8-25.4,29.8-40.7c0-25.6-14.6-40.9-39-40.9
	c-24.6,0-34,22.6-35.4,34.6c-0.5,4.1,2.4,7.9,6.5,8.4c4.1,0.5,7.9-2.4,8.4-6.5c0.1-0.9,2.9-21.4,20.5-21.4
	c15.9,0,23.9,8.7,23.9,25.9c0,8.4-12.5,19-24.5,29.3C249.8,241.2,229,259,229,283.9c0,40.6,29,55,56.2,55h70.2
	c4.2,0,7.5-3.4,7.5-7.5c0-4.2-3.4-7.5-7.5-7.5h-9.2c8-7.6,13.1-18.4,13.1-30.3c0-2.4-0.2-4.8-0.6-7L371,270v58.7
	c0,2.1,0.8,3.9,2.2,5.3c1.7,2.8,5.9,4.7,10.7,4.7c6.4,0,11.6-3.4,11.6-7.5c0-3.7-4.1-6.7-9.5-7.4v-57.4c2.8-15.2,9.1-35.7,23.7-48.1
	c1.9-1.6,3.6-3.1,4.9-4.5c7.7-4.6,12.8-12.6,12.8-21.8C427.6,177.6,415,166,399.6,166z"/>
<g>
	<polygon fill="#E4758C" points="360.7,207.3 400.9,228 402.9,225.5 363.5,204.6 	"/>
</g>
<g>
	<path fill="#A52831" d="M390.7,190.1c-2.7,0-5.1-1.6-6.1-4.1c-0.2-0.4,0-1,0.5-1.1c0.4-0.2,1,0,1.1,0.5c0.7,1.8,2.5,3,4.5,3
		c2,0,3.7-1.2,4.5-3c0.2-0.4,0.7-0.7,1.1-0.5c0.4,0.2,0.7,0.7,0.5,1.1C395.8,188.4,393.4,190.1,390.7,190.1z"/>
</g>
<g>
	<path fill="#A52831" d="M409.7,190.1c-2.7,0-5.1-1.6-6.1-4.1c-0.2-0.4,0-1,0.5-1.1c0.4-0.2,1,0,1.1,0.5c0.7,1.8,2.5,3,4.5,3
		c2,0,3.7-1.2,4.5-3c0.2-0.4,0.7-0.7,1.1-0.5c0.4,0.2,0.7,0.7,0.5,1.1C414.8,188.4,412.4,190.1,409.7,190.1z"/>
</g>
<g>
	<path fill="#A52831" d="M400.8,208.8c-3.5,0-6.6-1.6-7.9-4c-0.2-0.4-0.1-0.9,0.3-1.2c0.4-0.2,0.9-0.1,1.2,0.3
		c1,1.9,3.6,3.1,6.4,3.1c2.8,0,5.4-1.3,6.4-3.1c0.2-0.4,0.8-0.6,1.2-0.3c0.4,0.2,0.6,0.8,0.3,1.2
		C407.5,207.2,404.3,208.8,400.8,208.8z"/>
</g>
<g>
	<path fill="#EB6F88" d="M400.7,196.2c0,0-3.6-2-4.5,0c-1.2,2.5,4.8,4.1,4.8,4.1s5.8-2.7,4.6-4.5C404.3,194,400.7,196.2,400.7,196.2
		z"/>
</g>
<g>
	<path fill="#A52831" d="M413,198.6c-0.1,0-0.1,0-0.2,0c-0.5-0.1-0.7-0.6-0.6-1.1c0.1-0.4,0.5-0.6,0.8-0.6c1.2-0.2,14.7-3.7,23.5-6
		c0.5-0.1,0.9,0.2,1.1,0.6c0.1,0.5-0.2,0.9-0.6,1.1C416.4,198,413.6,198.6,413,198.6z"/>
</g>
<g>
	<path fill="#A52831" d="M435.4,204.4c0,0-0.1,0-0.1,0l-21-3.2c-0.5-0.1-0.8-0.5-0.7-1c0.1-0.5,0.5-0.8,1-0.7l21,3.2
		c0.5,0.1,0.8,0.5,0.7,1C436.2,204.1,435.9,204.4,435.4,204.4z"/>
</g>
<g>
	<path fill="#A52831" d="M388.7,197.7h-19.9c-0.5,0-0.9-0.4-0.9-0.9s0.4-0.9,0.9-0.9h19.9c0.5,0,0.9,0.4,0.9,0.9
		S389.2,197.7,388.7,197.7z"/>
</g>
<g>
	<path fill="#A52831" d="M368.9,208.7c-0.4,0-0.7-0.2-0.8-0.6c-0.2-0.5,0.1-0.9,0.5-1.1l18.9-6.9c0.5-0.2,0.9,0.1,1.1,0.5
		c0.2,0.5-0.1,0.9-0.5,1.1l-18.9,6.9C369.1,208.7,369,208.7,368.9,208.7z"/>
</g>
<g>
	<path fill="#A52831" d="M80.9,171c0,0-22.5-15.3-28.9-15.6S62.4,186,62.4,186L80.9,171z"/>
</g>
<g>
	<path fill="#FFFBFD" d="M76.9,173.5l-14.7,12.1c-1.6-3-10.6-20-11.6-27.1C59,161.3,76.9,173.5,76.9,173.5z"/>
</g>
<g>
	<path fill="#A52831" d="M96,167.9c0,0,15.1-19.5,20.4-19s-2.8,34.4-2.8,34.4L96,167.9z"/>
</g>
<g>
	<path fill="#FFFBFD" d="M113.5,183.2l-14.8-13c3.3-4.2,14-17,19.3-18.6C119.1,159.9,113.5,183.2,113.5,183.2z"/>
</g>
<path fill="#A52831" d="M220,225.6c-12-10.3-24.5-20.9-24.5-29.3c0-17.2,8.1-25.9,23.9-25.9c17.2,0,20.2,19.2,20.5,21.4
	c0.5,4.1,4.3,7,8.4,6.5c4.1-0.5,7.1-4.3,6.5-8.4c-1.5-12-10.8-34.6-35.4-34.6c-24.4,0-39,15.3-39,40.9c0,15.3,14.5,27.7,29.8,40.7
	c16.7,14.2,33.9,28.9,33.9,46.9c0,36.1-28.7,39.9-41.1,39.9h-3.8c8-7.6,13.1-18.4,13.1-30.3c0-2.5-0.2-4.9-0.6-7.3c0,0,0,0,0-0.1
	c-5.3-41.7-55.7-67.5-74.2-73.3c-15.6-4.9-20.2-20.7-21.3-25.7c0-0.2-0.1-0.4-0.1-0.6c-0.1-0.5-0.2-0.8-0.2-0.8l-0.1,0
	c-3-11.3-14-19.7-27.2-19.7c-15.5,0-28,11.6-28,25.9c0,9.1,5.1,17.2,12.8,21.8c1.4,1.4,3,2.9,4.9,4.5c14.6,12.4,21,32.9,23.7,48.1
	v62.2c0,4.2,3.4,7.5,7.5,7.5c4.2,0,7.5-3.4,7.5-7.5V270l12.4,16.5c-0.4,2.3-0.6,4.6-0.6,7c0,11.9,5,22.7,13.1,30.3h-9.2
	c-4.2,0-7.5,3.4-7.5,7.5c0,4.2,3.4,7.5,7.5,7.5H203c27.1,0,56.2-14.4,56.2-55C259.1,259,238.3,241.2,220,225.6z"/>
<g>
	<path fill="#FFFFFF" d="M97.4,190.1c-2.7,0-5.1-1.6-6.1-4.1c-0.2-0.4,0-1,0.5-1.1c0.4-0.2,1,0,1.1,0.5c0.7,1.8,2.5,3,4.5,3
		c2,0,3.7-1.2,4.5-3c0.2-0.4,0.7-0.7,1.1-0.5c0.4,0.2,0.7,0.7,0.5,1.1C102.5,188.4,100.1,190.1,97.4,190.1z"/>
</g>
<g>
	<path fill="#FFFFFF" d="M78.4,190.1c-2.7,0-5.1-1.6-6.1-4.1c-0.2-0.4,0-1,0.5-1.1c0.4-0.2,1,0,1.1,0.5c0.7,1.8,2.5,3,4.5,3
		c2,0,3.7-1.2,4.5-3c0.2-0.4,0.7-0.7,1.1-0.5c0.4,0.2,0.7,0.7,0.5,1.1C83.5,188.4,81.1,190.1,78.4,190.1z"/>
</g>
<g>
	<path fill="#FFFFFF" d="M87.3,208.8c-3.5,0-6.6-1.6-7.9-4c-0.2-0.4-0.1-0.9,0.3-1.2c0.4-0.2,0.9-0.1,1.2,0.3c1,1.9,3.6,3.1,6.4,3.1
		c2.8,0,5.4-1.3,6.4-3.1c0.2-0.4,0.8-0.6,1.2-0.3c0.4,0.2,0.6,0.8,0.3,1.2C93.9,207.2,90.8,208.8,87.3,208.8z"/>
</g>
<g>
	<path fill="#E4758C" d="M87.4,196.2c0,0,3.6-2,4.5,0c1.2,2.5-4.8,4.1-4.8,4.1s-5.8-2.7-4.6-4.5C83.8,194,87.4,196.2,87.4,196.2z"/>
</g>
<g>
	<path fill="#FFFFFF" d="M75.1,198.6c-0.6,0-3.4-0.6-24.1-6.1c-0.5-0.1-0.7-0.6-0.6-1.1c0.1-0.5,0.6-0.7,1.1-0.6
		c8.8,2.3,22.3,5.8,23.5,6c0.4,0,0.7,0.2,0.8,0.6c0.1,0.5-0.1,0.9-0.6,1.1C75.2,198.6,75.2,198.6,75.1,198.6z"/>
</g>
<g>
	<path fill="#FFFFFF" d="M49.4,209.5c-0.4,0-0.8-0.3-0.9-0.7c-0.1-0.5,0.3-0.9,0.7-1l24.4-8.3c0.5-0.1,0.9,0.3,1,0.7
		c0.1,0.5-0.3,0.9-0.7,1l-24.4,8.3C49.4,209.5,49.4,209.5,49.4,209.5z"/>
</g>
<g>
	<path fill="#FFFFFF" d="M119.3,197.7H99.4c-0.5,0-0.9-0.4-0.9-0.9s0.4-0.9,0.9-0.9h19.9c0.5,0,0.9,0.4,0.9,0.9
		S119.8,197.7,119.3,197.7z"/>
</g>
<g>
	<path fill="#FFFFFF" d="M119.3,208.7c-0.1,0-0.2,0-0.3-0.1l-18.9-6.9c-0.5-0.2-0.7-0.7-0.5-1.1c0.2-0.5,0.7-0.7,1.1-0.5l18.9,6.9
		c0.5,0.2,0.7,0.7,0.5,1.1C120,208.5,119.6,208.7,119.3,208.7z"/>
</g>
<g>
	<g>
		<path fill="#FFFBFD" d="M162.6,224.5c-5,5.6-12.4,14.7-10.7,17.4c1.7,2.7,12.2-6.2,18.9-12.2C168,227.9,165.3,226.1,162.6,224.5z"
			/>
	</g>
	<g>
		<path fill="#FFFBFD" d="M186.3,241.9c-2.6-2.4-5.4-4.7-8.1-6.9c-5.4,6-14.9,17.3-12.9,20.6C167.1,258.7,178.9,248.6,186.3,241.9z"
			/>
	</g>
	<g>
		<path fill="#FFFBFD" d="M193.6,249.4c-5.8,5.5-16.6,16.3-14.8,19.8c1.6,3.1,13.5-5.4,21.4-11.5C198.1,254.8,195.9,252,193.6,249.4
			z"/>
	</g>
</g>
<g>
	<ellipse fill="#FFFBFD" cx="104.8" cy="331.2" rx="12.2" ry="7.5"/>
</g>
<path fill="#FFFBFD" d="M244,283.9c0-8.3,3.7-15.9,9.3-23.1l-8.6-13.1c-9.1,10.4-15.7,22.2-15.7,36.3"/>
</svg>
